<?xml version="1.0" encoding="iso-8859-1"?>
<!-- Generator: Adobe Illustrator 19.0.0, SVG Export Plug-In . SVG Version: 6.00 Build 0)  -->
<svg version="1.1" id="Capa_1" xmlns="http://www.w3.org/2000/svg" xmlns:xlink="http://www.w3.org/1999/xlink" x="0px" y="0px"
	 viewBox="0 0 505.698 505.698" style="enable-background:new 0 0 505.698 505.698;" xml:space="preserve">
<circle style="fill:#F06151;" cx="252.062" cy="252.849" r="252.062"/>
<path style="fill:#2CA0DA;" d="M478.129,419.84l-58.289-32.295l-58.289,32.295c-11.028,6.302-17.329,17.329-17.329,29.932v46.474
	h152.025v-46.474C496.246,437.169,489.157,426.142,478.129,419.84z"/>
<path style="fill:#183651;" d="M496.246,504.911H344.222c-4.726,0-7.877-3.151-7.877-7.877V450.56
	c0-15.754,8.665-29.932,22.055-37.022l58.289-32.295c2.363-1.575,5.514-1.575,7.877,0l58.289,32.295
	c13.391,7.089,22.055,21.268,22.055,37.022v46.474C504.123,500.972,500.185,504.911,496.246,504.911z M352.098,489.157h136.271
	V450.56c0-9.452-5.514-18.905-13.391-22.843l-54.351-29.932l-54.351,29.932c-8.665,4.726-13.391,13.391-13.391,22.843v38.597
	H352.098z"/>
<path style="fill:#FFFFFF;" d="M496.246,457.649v-7.877c0-12.603-7.089-24.418-17.329-29.932l-58.289-32.295l-58.289,32.295
	c-11.028,6.302-17.329,17.329-17.329,29.932v7.877"/>
<path style="fill:#183651;" d="M496.246,465.526c-4.726,0-7.877-3.151-7.877-7.877v-7.877c0-9.452-5.514-18.905-13.391-22.843
	l-54.351-29.932l-54.351,29.932c-8.665,4.726-13.391,13.391-13.391,22.843v7.877c0,4.726-3.151,7.877-7.877,7.877
	c-4.726,0-7.877-3.151-7.877-7.877v-7.877c0-15.754,8.665-29.932,22.055-37.022l58.289-32.295c2.363-1.575,5.514-1.575,7.877,0
	l58.289,32.295c13.391,7.089,22.055,21.268,22.055,37.022v7.877C504.123,462.375,500.185,465.526,496.246,465.526z"/>
<path style="fill:#FFFFFF;" d="M458.437,353.674c0,25.994-17.329,55.138-38.597,55.138s-38.597-29.145-38.597-55.138
	s17.329-38.597,38.597-38.597C441.108,315.077,458.437,327.68,458.437,353.674z"/>
<path style="fill:#183651;" d="M419.84,416.689c-26.782,0-46.474-33.083-46.474-63.015c0-28.357,18.905-46.474,46.474-46.474
	c27.569,0,46.474,18.905,46.474,46.474C466.314,383.606,446.622,416.689,419.84,416.689z M419.84,322.954
	c-18.905,0-30.72,11.815-30.72,30.72c0,23.631,14.966,47.262,30.72,47.262c14.966,0,30.72-23.631,30.72-47.262
	C450.56,333.982,438.745,322.954,419.84,322.954z"/>
<path style="fill:#2CA0DA;" d="M142.572,419.84l-58.289-32.295L25.994,419.84c-11.028,6.302-17.329,17.329-17.329,29.932v46.474
	h152.025v-46.474C159.902,437.169,153.6,426.142,142.572,419.84z"/>
<path style="fill:#183651;" d="M159.902,504.911H7.877c-4.726,0-7.877-3.151-7.877-7.877V450.56
	c0-15.754,8.665-29.932,22.055-37.022l58.289-32.295c2.363-1.575,5.514-1.575,7.877,0l58.289,32.295
	c13.391,7.089,22.055,21.268,22.055,37.022v46.474C167.778,500.972,164.628,504.911,159.902,504.911z M15.754,489.157h136.271
	V450.56c0-9.452-5.514-18.905-13.391-22.843l-54.351-29.932l-54.351,29.932c-8.665,4.726-13.391,13.391-13.391,22.843v38.597H15.754
	z"/>
<path style="fill:#FFFFFF;" d="M159.902,457.649v-7.877c0-12.603-7.089-24.418-17.329-29.932l-58.289-32.295L25.994,419.84
	c-11.028,6.302-17.329,17.329-17.329,29.932v7.877"/>
<path style="fill:#183651;" d="M159.902,465.526c-4.726,0-7.877-3.151-7.877-7.877v-7.877c0-9.452-5.514-18.905-13.391-22.843
	l-54.351-29.932l-54.351,29.932c-8.665,4.726-13.391,13.391-13.391,22.843v7.877c0,4.726-3.151,7.877-7.877,7.877
	s-7.877-3.151-7.877-7.877v-7.877c0-15.754,8.665-29.932,22.055-37.022l58.289-32.295c2.363-1.575,5.514-1.575,7.877,0
	l58.289,32.295c13.391,7.089,22.055,21.268,22.055,37.022v7.877C167.778,462.375,164.628,465.526,159.902,465.526z"/>
<path style="fill:#FFFFFF;" d="M122.092,353.674c0,25.994-17.329,55.138-38.597,55.138s-38.597-29.145-38.597-55.138
	s17.329-38.597,38.597-38.597S122.092,327.68,122.092,353.674z"/>
<path style="fill:#183651;" d="M84.283,416.689c-26.782,0-46.474-33.083-46.474-63.015c0-28.357,18.905-46.474,46.474-46.474
	s46.474,18.905,46.474,46.474C129.969,383.606,110.277,416.689,84.283,416.689z M84.283,322.954c-18.905,0-30.72,11.815-30.72,30.72
	c0,23.631,14.966,47.262,30.72,47.262s30.72-23.631,30.72-47.262C114.215,333.982,103.188,322.954,84.283,322.954z"/>
<path style="fill:#FBBD5E;" d="M359.188,428.505v68.529H150.449v-68.529c0-24.418,20.48-44.111,46.474-44.898
	c13.391,18.905,34.658,31.508,58.289,31.508s44.111-11.815,58.289-31.508C338.708,384.394,359.188,404.086,359.188,428.505z"/>
<path style="fill:#183651;" d="M359.188,504.911H150.449c-4.726,0-7.877-3.151-7.877-7.877v-68.529
	c0-28.357,23.631-51.2,53.563-52.775c3.151,0,5.514,0.788,7.089,3.151c12.603,18.117,31.508,27.569,51.988,27.569
	s39.385-10.24,51.2-27.569c1.575-2.363,3.938-3.151,7.089-3.151c29.932,1.575,53.563,24.418,53.563,52.775v68.529
	C367.065,501.76,363.914,504.911,359.188,504.911z M158.326,489.157h192.985v-60.652c0-18.905-14.966-33.871-34.658-37.022
	c-15.754,19.692-37.809,30.72-61.44,30.72s-46.474-11.028-61.44-30.72c-19.692,2.363-34.658,18.117-34.658,37.022v60.652H158.326z"
	/>
<g>
	<path style="fill:#FFFFFF;" d="M178.806,468.677v-40.172c0-5.514,3.151-9.452,7.877-12.603
		c18.905,18.117,42.535,27.569,67.742,27.569s49.625-10.24,67.742-27.569c4.726,3.151,7.877,7.877,7.877,12.603v40.172H178.806z"/>
	<ellipse style="fill:#FFFFFF;" cx="255.212" cy="302.474" rx="55.926" ry="70.105"/>
</g>
<path style="fill:#183651;" d="M255.212,380.455c-34.658,0-63.803-35.446-63.803-77.982s28.357-77.982,63.803-77.982
	s63.803,35.446,63.803,77.982S289.871,380.455,255.212,380.455z M255.212,240.246c-25.994,0-48.049,28.357-48.049,62.228
	c0,34.658,21.268,62.228,48.049,62.228s48.049-28.357,48.049-62.228C302.474,267.815,281.206,240.246,255.212,240.246z"/>
<path style="fill:#E1E6E7;" d="M315.865,252.849c-3.151-25.994-53.563-48.049-96.886-27.569
	c-11.815,5.514-22.843,14.178-24.418,27.569c0,0-17.329,11.028,6.302,59.865c0,0-5.514-11.815,11.815-24.418
	c0,0-7.877-22.843,14.178-22.843c0,0,18.117,9.452,29.145,7.089c11.028,1.575,29.145-7.089,29.145-7.089
	c22.055,0,14.178,22.843,14.178,22.843c17.329,11.815,11.815,24.418,11.815,24.418C333.194,263.877,315.865,252.849,315.865,252.849
	z"/>
<path style="fill:#183651;" d="M200.074,321.378c-3.151,0-5.514-1.575-7.089-4.726c-20.48-43.323-11.815-61.44-6.302-67.742
	c11.028-51.2,124.455-51.988,136.271,0c5.514,6.302,14.178,24.418-6.302,67.742c-1.575,3.938-6.302,5.514-10.24,3.938
	c-3.938-1.575-5.514-6.302-3.938-10.24c0-0.788,1.575-7.089-8.665-14.966c-3.151-2.363-3.938-5.514-3.151-9.452
	c0.788-2.363,1.575-7.877,0-10.24c-0.788-1.575-3.151-1.575-4.726-2.363c-5.514,2.363-20.48,8.665-30.72,7.089
	c-11.028,1.575-25.206-4.726-30.72-7.089c-1.575,0-3.938,0.788-4.726,2.363c-1.575,2.363-0.788,7.877,0,10.24
	c1.575,3.151,0,7.089-3.151,9.452c-9.452,6.302-9.452,12.603-9.452,14.178c0.788,0.788,0.788,2.363,0.788,3.938
	C207.951,317.44,204.012,321.378,200.074,321.378z M255.212,225.28c-20.48,0-50.412,10.24-52.775,28.357
	c0,2.363-1.575,4.726-3.151,5.514c-2.363,1.575-5.514,11.028,0.788,29.932c0.788-1.575,2.363-2.363,3.938-3.938
	c-0.788-4.726-0.788-12.603,3.151-18.905c2.363-3.938,8.665-8.665,19.692-8.665c0.788,0,2.363,0,3.938,0.788
	c3.938,2.363,17.329,7.877,24.418,6.302c0.788,0,1.575,0,3.151,0c7.089,1.575,20.48-4.726,24.418-6.302
	c0.788-0.788,2.363-0.788,3.938-0.788c11.028,0,16.542,4.726,19.692,8.665c3.938,6.302,3.938,13.391,3.151,18.905
	c1.575,1.575,2.363,2.363,3.938,3.938c5.514-18.905,2.363-28.357,0-29.932c-1.575-1.575-3.151-3.151-3.151-5.514
	C305.625,236.308,276.48,225.28,255.212,225.28z"/>
<path style="fill:#E1E6E7;" d="M456.862,8.665H302.474v95.311c0,22.055,17.329,39.385,39.385,39.385h48.837l76.406,51.988V143.36
	h29.145V48.049C496.246,25.994,478.129,8.665,456.862,8.665z"/>
<path style="fill:#183651;" d="M462.375,201.649l-74.043-50.412h-46.474c-25.994,0-47.262-21.268-47.262-47.262V8.665
	c0-4.726,3.151-7.877,7.877-7.877h154.388c25.994,0,47.262,21.268,47.262,47.262v95.311c0,4.726-3.151,7.877-7.877,7.877h-21.268
	v44.111c0,3.151-1.575,5.514-3.938,7.089C467.889,203.225,464.738,203.225,462.375,201.649z M310.351,16.542v87.434
	c0,17.329,14.178,31.508,31.508,31.508h48.837c1.575,0,3.151,0.788,4.726,1.575l63.803,43.323V143.36
	c0-4.726,3.151-7.877,7.877-7.877h21.268V48.049c0-17.329-14.178-31.508-31.508-31.508H310.351z"/>
<path style="fill:#FFFFFF;" d="M400.148,111.852h-58.289c-4.726,0-7.877-3.151-7.877-7.877V40.172h122.88
	c4.726,0,7.877,3.151,7.877,7.877v63.803h-29.145v23.631L400.148,111.852z"/>
<path style="fill:#E1E6E7;" d="M58.289,8.665H256v122.092c0,27.569-22.843,50.412-50.412,50.412H143.36l-97.674,66.166v-66.166
	H7.877V59.077C7.877,31.508,30.72,8.665,58.289,8.665z"/>
<path style="fill:#183651;" d="M41.748,254.425c-2.363-1.575-3.938-3.938-3.938-7.089v-58.289H7.877
	c-4.726,0-7.877-3.151-7.877-7.877V59.077C0,26.782,25.994,0.788,58.289,0.788H256c4.726,0,7.877,3.151,7.877,7.877v122.092
	c0,32.295-25.994,58.289-58.289,58.289h-59.865l-96.098,64.591C47.262,256,44.111,256,41.748,254.425z M15.754,173.292h29.932
	c4.726,0,7.877,3.151,7.877,7.877v51.2l85.858-58.289c1.575-0.788,3.151-1.575,4.726-1.575h62.228
	c23.631,0,42.535-18.905,42.535-42.535V16.542H58.289c-23.631,0-42.535,18.905-42.535,42.535V173.292z"/>
<path style="fill:#FFFFFF;" d="M77.194,149.662H39.385V59.077c0-10.24,8.665-18.905,18.905-18.905h166.203v90.585
	c0,10.24-8.665,18.905-18.905,18.905h-71.68l-56.714,38.597V149.662z"/>
<g>
	<rect x="352.098" y="69.317" style="fill:#183651;" width="15.754" height="15.754"/>
	<rect x="391.483" y="69.317" style="fill:#183651;" width="15.754" height="15.754"/>
	<rect x="430.868" y="69.317" style="fill:#183651;" width="15.754" height="15.754"/>
	<rect x="124.455" y="85.071" style="fill:#183651;" width="15.754" height="15.754"/>
	<rect x="174.868" y="85.071" style="fill:#183651;" width="15.754" height="15.754"/>
</g>
<path style="fill:#173651;" d="M85.858,106.338H74.831v-5.514c0-2.363,0-4.726,0.788-5.514c0.788-1.575,1.575-3.151,3.938-4.726
	l7.089-7.089c1.575-1.575,2.363-3.151,2.363-5.514c0-2.363-0.788-3.938-2.363-5.514c-1.575-1.575-3.151-2.363-5.514-2.363
	s-4.726,0.788-6.302,2.363c-1.575,1.575-2.363,3.151-3.151,5.514H60.652c0.788-5.514,3.151-10.24,6.302-13.391
	c3.938-3.151,8.665-4.726,14.178-4.726s10.24,1.575,13.391,4.726c3.151,3.151,5.514,7.089,5.514,12.603
	c0,3.938-0.788,7.089-3.151,9.452c-1.575,1.575-2.363,2.363-2.363,3.151c-0.788,0.788-1.575,1.575-2.363,2.363
	c-0.788,0.788-1.575,1.575-2.363,2.363s-1.575,1.575-1.575,1.575c-0.788,1.575-1.575,3.151-1.575,5.514v4.726H85.858z
	 M81.132,126.818c-2.363,0-3.938-0.788-5.514-2.363c-1.575-1.575-2.363-3.151-2.363-4.726s0.788-3.938,2.363-4.726
	c1.575-1.575,3.151-2.363,4.726-2.363c1.575,0,3.938,0.788,5.514,2.363c1.575,1.575,2.363,3.151,2.363,4.726
	c0,1.575-0.788,3.938-2.363,4.726C84.283,126.031,82.708,126.818,81.132,126.818z"/>
<g>
</g>
<g>
</g>
<g>
</g>
<g>
</g>
<g>
</g>
<g>
</g>
<g>
</g>
<g>
</g>
<g>
</g>
<g>
</g>
<g>
</g>
<g>
</g>
<g>
</g>
<g>
</g>
<g>
</g>
</svg>
