<svg xmlns="http://www.w3.org/2000/svg" width="819" height="84" viewBox="0 0 819 84">
  <g id="Group_527" data-name="Group 527" transform="translate(-217 -592)">
    <rect id="Rectangle_283" data-name="Rectangle 283" width="819" height="84" rx="17" transform="translate(217 592)" fill="#e2e6ff"/>
    <g id="Group_526" data-name="Group 526" transform="translate(245.98 617.332)">
      <g id="lightbulb" transform="translate(0)">
        <path id="Path_763" data-name="Path 763" d="M137.511,124.738c-1.533,1.533-1.342,4.628-1.342,4.628h-7.777s.164-3.094-1.342-4.628a7.914,7.914,0,1,1,10.461,0Z" transform="translate(-118.541 -103.215)" fill="#ffd517"/>
        <g id="Group_524" data-name="Group 524" transform="translate(9.605 27.849)">
          <path id="Path_764" data-name="Path 764" d="M188.555,407.539a.736.736,0,0,1-.739.739h-6.764a.736.736,0,0,1-.739-.739h0a.736.736,0,0,1,.739-.739h6.736a.76.76,0,0,1,.767.739Z" transform="translate(-180.312 -406.8)" fill="#e5e5e5"/>
          <path id="Path_765" data-name="Path 765" d="M201.328,452.339a.736.736,0,0,1-.739.739h-4.737a.736.736,0,0,1-.739-.739h0a.736.736,0,0,1,.739-.739h4.737a.736.736,0,0,1,.739.739Z" transform="translate(-194.099 -448.533)" fill="#e5e5e5"/>
        </g>
        <g id="Group_525" data-name="Group 525">
          <path id="Path_766" data-name="Path 766" d="M130.842,117.932a8.457,8.457,0,1,0-11.255.082c1.342,1.342,1.2,4.19,1.2,4.217a.654.654,0,0,0,.137.383.541.541,0,0,0,.383.164h7.75a.541.541,0,0,0,.383-.164.512.512,0,0,0,.137-.383c0-.027-.137-2.875,1.2-4.217C130.815,117.987,130.842,117.96,130.842,117.932Zm-.767-.685a.273.273,0,0,0-.11.137,7.01,7.01,0,0,0-1.424,4.381h-6.709a6.938,6.938,0,0,0-1.533-4.491,7.418,7.418,0,1,1,12.3-5.586A7.364,7.364,0,0,1,130.075,117.248Z" transform="translate(-111.461 -96.135)" fill="#210b20"/>
          <path id="Path_767" data-name="Path 767" d="M233.232,135.2a.52.52,0,1,0,0,1.041,5.563,5.563,0,0,1,5.559,5.559.52.52,0,1,0,1.041,0A6.6,6.6,0,0,0,233.232,135.2Z" transform="translate(-219.52 -125.944)" fill="#210b20"/>
          <path id="Path_768" data-name="Path 768" d="M182,400.46a1.256,1.256,0,0,0-1.26-1.26h-6.764a1.26,1.26,0,1,0,0,2.519h6.736A1.262,1.262,0,0,0,182,400.46Zm-1.287.219h-6.736a.219.219,0,1,1,0-.438h6.736a.216.216,0,0,1,.219.219C180.955,400.6,180.845,400.679,180.708,400.679Z" transform="translate(-163.628 -371.871)" fill="#210b20"/>
          <path id="Path_769" data-name="Path 769" d="M193.509,444h-4.737a1.26,1.26,0,1,0,0,2.519h4.737a1.256,1.256,0,0,0,1.26-1.26A1.274,1.274,0,0,0,193.509,444Zm0,1.479h-4.737a.219.219,0,0,1,0-.438h4.737a.216.216,0,0,1,.219.219A.2.2,0,0,1,193.509,445.479Z" transform="translate(-177.415 -413.604)" fill="#210b20"/>
          <path id="Path_770" data-name="Path 770" d="M233.753,4.025V.52a.52.52,0,0,0-1.041,0V4.053a.52.52,0,0,0,.52.52A.544.544,0,0,0,233.753,4.025Z" transform="translate(-219.52)" fill="#210b20"/>
          <path id="Path_771" data-name="Path 771" d="M328.988,36.82a.52.52,0,0,0-.712.137l-1.944,2.93a.52.52,0,0,0,.137.712.528.528,0,0,0,.274.082.572.572,0,0,0,.438-.219l1.944-2.93A.525.525,0,0,0,328.988,36.82Z" transform="translate(-306.65 -34.218)" fill="#210b20"/>
          <path id="Path_772" data-name="Path 772" d="M117.242,38.518a.522.522,0,0,0,.438-.794l-1.889-2.957a.517.517,0,1,0-.876.548l1.889,2.957A.526.526,0,0,0,117.242,38.518Z" transform="translate(-109.718 -32.165)" fill="#210b20"/>
          <path id="Path_773" data-name="Path 773" d="M40.283,115.246l3.094,1.67a.407.407,0,0,0,.246.055.565.565,0,0,0,.466-.274.515.515,0,0,0-.219-.712l-3.094-1.67a.515.515,0,0,0-.712.219A.557.557,0,0,0,40.283,115.246Z" transform="translate(-40.017 -106.428)" fill="#210b20"/>
          <path id="Path_774" data-name="Path 774" d="M380.766,117.445a.8.8,0,0,0,.246-.055l3.094-1.67a.527.527,0,1,0-.493-.931l-3.094,1.67a.522.522,0,0,0,.246.986Z" transform="translate(-356.949 -106.874)" fill="#210b20"/>
        </g>
      </g>
      <text id="How_to_create_flexible_templates_for_the_client_and_make_it_easy_for_public_users_to_find_their_information_easily." data-name="How to create flexible templates for the client and make it easy for public users to find their information easily." transform="translate(404.02 21.668)" fill="#1d1d1d" font-size="15" font-family="HelveticaNeue, Helvetica Neue"><tspan x="-366.997" y="0">How to create flexible templates for the client and make it easy for public users to find their information easily.</tspan></text>
    </g>
  </g>
</svg>
