<svg xmlns="http://www.w3.org/2000/svg" width="420.137" height="293" viewBox="0 0 420.137 293">
  <g id="Group_553" data-name="Group 553" transform="translate(596 -1017)">
    <g id="Group_546" data-name="Group 546" transform="translate(-681.863 892)">
      <g id="Group_522" data-name="Group 522">
        <g id="Group_521" data-name="Group 521">
          <g id="Group_520" data-name="Group 520" transform="translate(0 21.729)">
            <rect id="Rectangle_282" data-name="Rectangle 282" width="420" height="293" rx="13" transform="translate(86 103.271)" fill="#a2bfff"/>
            <path id="Path_762" data-name="Path 762" d="M0,0,420-.109V118a11,11,0,0,1-11,11H11A11,11,0,0,1,0,118V11C-.309,9.848,0,0,0,0Z" transform="translate(86 267.271)" fill="#a2bfff"/>
          </g>
        </g>
      </g>
    </g>
    <g id="network-connection" transform="translate(-507 1486)">
      <g id="Group_551" data-name="Group 551" transform="translate(64 -379)">
        <g id="Group_547" data-name="Group 547" transform="translate(8.479 8.479)">
          <circle id="Ellipse_103" data-name="Ellipse 103" cx="17" cy="17" r="17" transform="translate(-0.479 -0.479)" fill="#f0bc5e"/>
        </g>
        <g id="Group_549" data-name="Group 549" transform="translate(53.356 64.576)">
          <g id="Group_548" data-name="Group 548">
            <path id="Path_795" data-name="Path 795" d="M34.61,46.219a5.61,5.61,0,1,1,5.61-5.61A5.616,5.616,0,0,1,34.61,46.219Z" transform="translate(-29 -35)" fill="#f0bc5e"/>
          </g>
        </g>
        <g id="Group_550" data-name="Group 550" transform="translate(1 1)">
          <path id="Path_796" data-name="Path 796" d="M111.323,30.918a5.616,5.616,0,0,0,5.61-5.61V6.61A5.616,5.616,0,0,0,111.323,1H81.4A5.616,5.616,0,0,0,75.8,6.61v4.748a50.264,50.264,0,0,0-31.184-.765A24.278,24.278,0,1,0,10.587,44.607a50.327,50.327,0,0,0,2.264,34.927H6.61A5.616,5.616,0,0,0,1,85.144v18.7a5.616,5.616,0,0,0,5.61,5.61h5.61v3.74H8.48v3.74H34.658v-3.74h-3.74v-3.74h5.61a5.6,5.6,0,0,0,4.993-3.1,50.579,50.579,0,0,0,34.892,0,5.6,5.6,0,0,0,4.993,3.1h5.61v3.74h-3.74v3.74h26.178v-3.74h-3.74v-3.74h5.61a5.616,5.616,0,0,0,5.61-5.61v-18.7a5.616,5.616,0,0,0-5.61-5.61h-6.24a50.592,50.592,0,0,0,0-41.137h4.37v-3.74h-3.74v-3.74Zm0-3.74H81.4a1.871,1.871,0,0,1-1.87-1.87v-1.87h33.658v1.87A1.871,1.871,0,0,1,111.323,27.178ZM81.4,4.74h29.918a1.871,1.871,0,0,1,1.87,1.87V19.7H79.535V6.61A1.871,1.871,0,0,1,81.4,4.74Zm-56.1,0c2.01,0,4.151,2.855,5.626,7.48H19.68C21.157,7.6,23.3,4.74,25.308,4.74Zm6.58,11.219a46.368,46.368,0,0,1,.86,7.479H17.868a46.58,46.58,0,0,1,.86-7.479Zm.86,11.219a46.58,46.58,0,0,1-.86,7.479H18.728a46.368,46.368,0,0,1-.86-7.479ZM14.13,23.439h-9.3a20.382,20.382,0,0,1,2.177-7.479H14.9a51.024,51.024,0,0,0-.765,7.479Zm0,3.74a51.282,51.282,0,0,0,.765,7.479H7.01a20.418,20.418,0,0,1-2.177-7.479ZM15.763,38.4a25.842,25.842,0,0,0,2.6,6.247A20.655,20.655,0,0,1,9.454,38.4Zm3.919,0H30.937c-1.475,4.624-3.618,7.479-5.626,7.479S21.157,43.022,19.682,38.4Zm15.172,0h6.307a20.649,20.649,0,0,1-8.908,6.247A25.842,25.842,0,0,0,34.854,38.4Zm8.753-3.74H35.724a51.282,51.282,0,0,0,.765-7.479h9.3a20.418,20.418,0,0,1-2.177,7.479Zm-7.12-11.219a51.282,51.282,0,0,0-.765-7.479h7.883a20.417,20.417,0,0,1,2.177,7.479Zm4.677-11.219H34.856a25.842,25.842,0,0,0-2.6-6.247A20.66,20.66,0,0,1,41.163,12.219Zm-22.8-6.247a25.842,25.842,0,0,0-2.6,6.247H9.454A20.655,20.655,0,0,1,18.364,5.972ZM6.61,83.275H36.528a1.871,1.871,0,0,1,1.87,1.87V98.234H4.74V85.144a1.871,1.871,0,0,1,1.87-1.87Zm20.569,29.918H15.959v-3.74H27.178Zm9.349-7.479H6.61a1.871,1.871,0,0,1-1.87-1.87v-1.87H38.4v1.87A1.871,1.871,0,0,1,36.528,105.713Zm65.446,7.479H90.754v-3.74h11.219Zm9.349-7.479H81.4a1.871,1.871,0,0,1-1.87-1.87v-1.87h33.658v1.87A1.871,1.871,0,0,1,111.323,105.713Zm1.87-20.569V98.234H79.535V85.144a1.871,1.871,0,0,1,1.87-1.87h29.918A1.871,1.871,0,0,1,113.193,85.144Zm-7.479-26.178a46.848,46.848,0,0,1-4.779,20.569H81.4a5.616,5.616,0,0,0-5.61,5.61v17.433a47.139,47.139,0,0,1-33.658,0V85.144a5.616,5.616,0,0,0-5.61-5.61H17a46.45,46.45,0,0,1-3.13-32.79,24.291,24.291,0,0,0,32.874-32.88A46.515,46.515,0,0,1,75.8,15.355v9.953a5.616,5.616,0,0,0,5.61,5.61h5.61v3.74h-3.74V38.4h17.661A46.2,46.2,0,0,1,105.713,58.966Zm-3.74-24.308H90.754v-3.74h11.219Z" transform="translate(-1 -1)"/>
          <path id="Path_797" data-name="Path 797" d="M27.051,34.835,29.7,37.479a9.345,9.345,0,0,1,13.22,0l2.644-2.644a13.082,13.082,0,0,0-18.508,0Z" transform="translate(21.661 25.096)"/>
          <path id="Path_798" data-name="Path 798" d="M24.222,33.02l2.644,2.644a16.847,16.847,0,0,1,23.8,0l2.644-2.644A20.593,20.593,0,0,0,24.222,33.02Z" transform="translate(19.2 21.621)"/>
          <path id="Path_799" data-name="Path 799" d="M21.394,31.216l2.644,2.644a24.3,24.3,0,0,1,34.376,0l2.644-2.644a28.043,28.043,0,0,0-39.664,0Z" transform="translate(16.74 18.137)"/>
        </g>
      </g>
    </g>
  </g>
</svg>
