<svg xmlns="http://www.w3.org/2000/svg" width="865" height="276" viewBox="0 0 865 276">
  <g id="Group_539" data-name="Group 539" transform="translate(-77 -170)">
    <path id="Path_781" data-name="Path 781" d="M0,0V63.568" transform="translate(305.5 226.5)" fill="none" stroke="#d1d1d1" stroke-width="1"/>
    <path id="Path_788" data-name="Path 788" d="M0,0V63.568" transform="translate(338.5 293.5)" fill="none" stroke="#d1d1d1" stroke-width="1"/>
    <path id="Path_789" data-name="Path 789" d="M0,0V134.5" transform="translate(238.5 215.5)" fill="none" stroke="#d1d1d1" stroke-width="1"/>
    <path id="Path_791" data-name="Path 791" d="M0,158.5" transform="translate(172.5 191.5)" fill="none" stroke="#d1d1d1" stroke-width="1"/>
    <path id="Path_783" data-name="Path 783" d="M0,0V89.435" transform="translate(489.5 226.5)" fill="none" stroke="#d1d1d1" stroke-width="1"/>
    <line id="Line_198" data-name="Line 198" y2="21" transform="translate(426.5 188.5)" fill="none" stroke="#d1d1d1" stroke-width="1"/>
    <line id="Line_199" data-name="Line 199" y2="21" transform="translate(886.5 188.5)" fill="none" stroke="#d1d1d1" stroke-width="1"/>
    <line id="Line_197" data-name="Line 197" x2="500" transform="translate(261.5 220.5)" fill="none" stroke="#d1d1d1" stroke-width="1"/>
    <rect id="Rectangle_290" data-name="Rectangle 290" width="82" height="22" rx="3" transform="translate(156 170)" fill="#c7c7c7"/>
    <text id="Radio" transform="translate(197 185)" font-size="10" font-family="HelveticaNeue, Helvetica Neue"><tspan x="-13.055" y="0">Radio</tspan></text>
    <rect id="Rectangle_290-2" data-name="Rectangle 290" width="82" height="22" rx="3" transform="translate(248 170)" fill="#6493ff"/>
    <text id="Search" transform="translate(289 185)" font-size="10" font-family="HelveticaNeue, Helvetica Neue"><tspan x="-15.65" y="0">Search</tspan></text>
    <rect id="Rectangle_291" data-name="Rectangle 291" width="82" height="22" rx="3" transform="translate(845 170)" fill="#dfd1ff"/>
    <rect id="Rectangle_292" data-name="Rectangle 292" width="82" height="22" rx="3" transform="translate(845 209)" fill="#dfd1ff"/>
    <path id="Path_777" data-name="Path 777" d="M-282.27.7h786" transform="translate(438.27 200.5)" fill="none" stroke="#c9c4ff" stroke-width="1" stroke-dasharray="2"/>
    <path id="Path_778" data-name="Path 778" d="M-282.27.7h786" transform="translate(438.27 238.5)" fill="none" stroke="#c9c4ff" stroke-width="1" stroke-dasharray="2"/>
    <path id="Path_787" data-name="Path 787" d="M-282.27.7h786" transform="translate(438.27 337.5)" fill="none" stroke="#c9c4ff" stroke-width="1" stroke-dasharray="2"/>
    <path id="Path_790" data-name="Path 790" d="M-282.27.7h786" transform="translate(438.27 375.5)" fill="none" stroke="#c9c4ff" stroke-width="1" stroke-dasharray="2"/>
    <g id="cube" transform="translate(201 209)" style="isolation: isolate">
      <rect id="Rectangle_290-3" data-name="Rectangle 290" width="82" height="22" rx="3" fill="#6493ff"/>
      <text id="最新影片" transform="translate(41 15)" font-size="10" font-family="PingFangTC-Regular, PingFang TC"><tspan x="-20" y="0">最新影片</tspan></text>
    </g>
    <g id="cube-2" data-name="cube" transform="translate(293 209)" style="isolation: isolate">
      <rect id="Rectangle_290-4" data-name="Rectangle 290" width="82" height="22" rx="3" fill="#c7c7c7"/>
      <text id="關於我們" transform="translate(41 15)" font-size="10" font-family="PingFangTC-Regular, PingFang TC"><tspan x="-20" y="0">關於我們</tspan></text>
    </g>
    <rect id="Rectangle_290-5" data-name="Rectangle 290" width="82" height="22" rx="3" transform="translate(293 247)" fill="#6493ff"/>
    <rect id="Rectangle_294" data-name="Rectangle 294" width="82" height="22" rx="3" transform="translate(477 247)" fill="#c7c7c7"/>
    <text id="火把事工" transform="translate(334 262)" font-size="10" font-family="PingFangTC-Regular, PingFang TC"><tspan x="-20" y="0">火把事工</tspan></text>
    <text id="晨更" transform="translate(518 262)" font-size="10" font-family="PingFangTC-Regular, PingFang TC"><tspan x="-10" y="0">晨更</tspan></text>
    <rect id="Rectangle_290-6" data-name="Rectangle 290" width="82" height="22" rx="3" transform="translate(293 279)" fill="#6493ff"/>
    <rect id="Rectangle_298" data-name="Rectangle 298" width="55" height="22" rx="3" transform="translate(310 346)" fill="#c7c7c7"/>
    <rect id="Rectangle_299" data-name="Rectangle 299" width="52" height="22" rx="3" transform="translate(219 346)" fill="#c7c7c7"/>
    <rect id="Rectangle_293" data-name="Rectangle 293" width="82" height="22" rx="3" transform="translate(477 279)" fill="#c7c7c7"/>
    <rect id="Rectangle_295" data-name="Rectangle 295" width="82" height="22" rx="3" transform="translate(477 308)" fill="#c7c7c7"/>
    <text id="火把活動" transform="translate(334 294)" font-size="10" font-family="PingFangTC-Regular, PingFang TC"><tspan x="-20" y="0">火把活動</tspan></text>
    <text id="活動文章" transform="translate(338 361)" font-size="10" font-family="PingFangTC-Regular, PingFang TC"><tspan x="-20" y="0">活動文章</tspan></text>
    <text id="影片文章" transform="translate(246 361)" font-size="10" font-family="PingFangTC-Regular, PingFang TC"><tspan x="-20" y="0">影片文章</tspan></text>
    <text id="讀經" transform="translate(518 294)" font-size="10" font-family="PingFangTC-Regular, PingFang TC"><tspan x="-10" y="0">讀經</tspan></text>
    <text id="禱告" transform="translate(518 323)" font-size="10" font-family="PingFangTC-Regular, PingFang TC"><tspan x="-10" y="0">禱告</tspan></text>
    <g id="cube-3" data-name="cube" transform="translate(385 209)" style="isolation: isolate">
      <rect id="Rectangle_290-7" data-name="Rectangle 290" width="82" height="22" rx="3" fill="#c7c7c7"/>
      <text id="耶穌是誰" transform="translate(41 15)" font-size="10" font-family="PingFangTC-Regular, PingFang TC"><tspan x="-20" y="0">耶穌是誰</tspan></text>
    </g>
    <g id="cube-4" data-name="cube" transform="translate(477 209)" style="isolation: isolate">
      <rect id="Rectangle_290-8" data-name="Rectangle 290" width="82" height="22" rx="3" fill="#c7c7c7"/>
      <text id="_3M文化" data-name="3M文化" transform="translate(41 15)" font-size="10" font-family="HelveticaNeue, Helvetica Neue"><tspan x="-17.135" y="0">3M</tspan><tspan y="0" font-family="PingFangTC-Regular, PingFang TC">文化</tspan></text>
    </g>
    <g id="cube-5" data-name="cube" transform="translate(569 209)" style="isolation: isolate">
      <rect id="Rectangle_290-9" data-name="Rectangle 290" width="82" height="22" rx="3" fill="#c7c7c7"/>
      <text id="奉獻火把" transform="translate(41 15)" font-size="10" font-family="PingFangTC-Regular, PingFang TC"><tspan x="-20" y="0">奉獻火把</tspan></text>
    </g>
    <g id="cube-6" data-name="cube" transform="translate(661 209)" style="isolation: isolate">
      <rect id="Rectangle_290-10" data-name="Rectangle 290" width="82" height="22" rx="3" fill="#c7c7c7"/>
      <text id="聚會資訊" transform="translate(41 15)" font-size="10" font-family="PingFangTC-Regular, PingFang TC"><tspan x="-20" y="0">聚會資訊</tspan></text>
    </g>
    <g id="cube-7" data-name="cube" transform="translate(753 209)" style="isolation: isolate">
      <rect id="Rectangle_290-11" data-name="Rectangle 290" width="82" height="22" rx="3" fill="#c7c7c7"/>
      <text id="Q_A" data-name="Q&amp;A" transform="translate(41 15)" font-size="10" font-family="HelveticaNeue, Helvetica Neue"><tspan x="-10.19" y="0">Q&amp;A</tspan></text>
    </g>
    <text id="登入_註冊" data-name="登入/註冊" transform="translate(886 185)" fill="#626262" font-size="10" font-family="PingFangTC-Regular, PingFang TC"><tspan x="-21.665" y="0">登入</tspan><tspan y="0" font-family="HelveticaNeue, Helvetica Neue">/</tspan><tspan y="0">註冊</tspan></text>
    <text id="個人頁面" transform="translate(887 225)" fill="#626262" font-size="10" font-family="PingFangTC-Regular, PingFang TC"><tspan x="-20" y="0">個人頁面</tspan></text>
    <text id="Features" transform="translate(97 185)" fill="#363636" font-size="10" font-family="HelveticaNeue, Helvetica Neue"><tspan x="-19.355" y="0">Features</tspan></text>
    <text id="Navigation_Bar" data-name="Navigation Bar" transform="translate(111 224)" fill="#363636" font-size="10" font-family="HelveticaNeue, Helvetica Neue"><tspan x="-32.96" y="0">Navigation Bar</tspan></text>
    <text id="Content_page" data-name="Content page" transform="translate(108 362)" fill="#363636" font-size="10" font-family="HelveticaNeue, Helvetica Neue"><tspan x="-30.47" y="0">Content page</tspan></text>
    <text id="Sub_Nav" data-name="Sub Nav" transform="translate(97 263)" fill="#363636" font-size="10" font-family="HelveticaNeue, Helvetica Neue"><tspan x="-19.17" y="0">Sub Nav</tspan></text>
    <line id="Line_195" data-name="Line 195" x2="438" transform="translate(457.5 181.5)" fill="none" stroke="#d1d1d1" stroke-width="1"/>
    <g id="cube-8" data-name="cube" transform="translate(385 170)" style="isolation: isolate">
      <rect id="Rectangle_290-12" data-name="Rectangle 290" width="82" height="22" rx="3" fill="#c7c7c7"/>
      <text id="Home_page" data-name="Home page" transform="translate(41 15)" font-size="10" font-family="HelveticaNeue, Helvetica Neue"><tspan x="-26.025" y="0">Home page</tspan></text>
    </g>
    <g id="Group_538" data-name="Group 538" transform="translate(7 -119)">
      <rect id="Rectangle_300" data-name="Rectangle 300" width="174" height="56" rx="6" transform="translate(71 509)" fill="#f4f4ff"/>
      <text id="Category_Styles" data-name="Category Styles" transform="translate(116 531)" fill="#585858" font-size="10" font-family="HelveticaNeue, Helvetica Neue"><tspan x="-35.46" y="0">Category Styles</tspan></text>
      <rect id="Rectangle_296" data-name="Rectangle 296" width="12" height="12" transform="translate(161 521)" fill="#6493ff"/>
      <rect id="Rectangle_297" data-name="Rectangle 297" width="12" height="12" transform="translate(161 541)" fill="#c7c7c7"/>
      <text id="Blogs" transform="translate(191 531)" fill="#84a7f8" font-size="10" font-family="HelveticaNeue, Helvetica Neue"><tspan x="-12.775" y="0">Blogs</tspan></text>
      <text id="Single_page" data-name="Single page" transform="translate(204 551)" fill="#84a7f8" font-size="10" font-family="HelveticaNeue, Helvetica Neue"><tspan x="-26.39" y="0">Single page</tspan></text>
    </g>
  </g>
</svg>
