<svg xmlns="http://www.w3.org/2000/svg" width="709.266" height="178" viewBox="0 0 709.266 178">
  <g id="Group_519" data-name="Group 519" transform="translate(-384.365 -427)">
    <path id="Path_1" data-name="Path 1" d="M-52.183,0H657.083" transform="translate(436.548 433.5)" fill="none" stroke="#000" stroke-width="1"/>
    <g id="Group_513" data-name="Group 513">
      <circle id="Ellipse_1" data-name="Ellipse 1" cx="6.5" cy="6.5" r="6.5" transform="translate(430 427)"/>
      <text id="Discover_" data-name="Discover " transform="translate(437 541)" fill="#313131" font-size="13" font-family="HelveticaNeue-Bold, Helvetica Neue" font-weight="700"><tspan x="-29.133" y="0">Discover </tspan></text>
      <text id="Requirements_analysis" data-name="Requirements analysis" transform="translate(386 572)" fill="#5a5a5a" font-size="11" font-family="HelveticaNeue-Light, Helvetica Neue" font-weight="300"><tspan x="0" y="0">Requirements analysis</tspan></text>
      <g id="Icon_feather-search" data-name="Icon feather-search" transform="translate(458.5 461.5) rotate(90)">
        <path id="Path_747" data-name="Path 747" d="M34.722,19.611A15.111,15.111,0,1,1,19.611,4.5,15.111,15.111,0,0,1,34.722,19.611Z" fill="none" stroke="#000" stroke-linecap="round" stroke-linejoin="round" stroke-width="3"/>
        <path id="Path_748" data-name="Path 748" d="M33.192,33.192l-8.217-8.217" transform="translate(5.308 5.308)" fill="none" stroke="#000" stroke-linecap="round" stroke-linejoin="round" stroke-width="3"/>
      </g>
      <g id="Group_508" data-name="Group 508" transform="translate(174.274 -49.14)">
        <g id="Icon_feather-eye" data-name="Icon feather-eye" transform="translate(253.823 522.5)">
          <path id="Path_749" data-name="Path 749" d="M1.5,13.89S5.481,6,12.447,6s10.947,7.89,10.947,7.89-3.981,7.89-10.947,7.89S1.5,13.89,1.5,13.89Z" transform="translate(-1.5 -6)" fill="none" stroke="#000" stroke-linecap="round" stroke-linejoin="round" stroke-width="3"/>
          <path id="Path_750" data-name="Path 750" d="M20.428,16.964A3.464,3.464,0,1,1,16.964,13.5,3.464,3.464,0,0,1,20.428,16.964Z" transform="translate(-6.017 -9.074)" fill="none" stroke="#000" stroke-linecap="round" stroke-linejoin="round" stroke-width="3"/>
        </g>
      </g>
    </g>
    <g id="Group_512" data-name="Group 512" transform="translate(3)">
      <text id="Create_project_charter_and_Website_Sitemap" data-name="Create project 
charter and Website Sitemap" transform="translate(523 561)" fill="#5a5a5a" font-size="11" font-family="HelveticaNeue-Light, Helvetica Neue" font-weight="300"><tspan x="7.071" y="11">Create project </tspan><tspan x="13.396" y="26">charter and </tspan><tspan x="0.366" y="41">Website Sitemap</tspan></text>
      <text id="Planning" transform="translate(537 541)" fill="#313131" font-size="13" font-family="HelveticaNeue-Bold, Helvetica Neue" font-weight="700"><tspan x="0" y="0">Planning</tspan></text>
      <circle id="Ellipse_2" data-name="Ellipse 2" cx="6.5" cy="6.5" r="6.5" transform="translate(557 427)"/>
      <path id="Icon_metro-pencil" data-name="Icon metro-pencil" d="M28.6,1.928A4.82,4.82,0,0,1,32.455,9.64l-1.928,1.928L23.779,4.82l1.928-1.928A4.8,4.8,0,0,1,28.6,1.928ZM4.5,24.1,2.571,32.777l8.676-1.928L29.081,13.014,22.333,6.266ZM24.128,12.881l-13.5,13.5L8.97,24.716l13.5-13.5,1.662,1.662Z" transform="translate(545.429 464.052)"/>
    </g>
    <g id="Group_518" data-name="Group 518" transform="translate(15)">
      <g id="Icon_feather-book" data-name="Icon feather-book" transform="translate(657 463)">
        <path id="Path_753" data-name="Path 753" d="M9.75,3H30V33H9.75A3.75,3.75,0,0,1,6,29.25V6.75A3.75,3.75,0,0,1,9.75,3Z" fill="none" stroke="#000" stroke-linecap="round" stroke-linejoin="round" stroke-width="3"/>
      </g>
      <g id="Group_514" data-name="Group 514">
        <text id="Analyzed_user_needs" data-name="Analyzed user needs" transform="translate(626 568)" fill="#5a5a5a" font-size="11" font-family="HelveticaNeue-Light, Helvetica Neue" font-weight="300"><tspan x="0" y="0">Analyzed user needs</tspan></text>
        <text id="Research" transform="translate(646 541)" fill="#313131" font-size="13" font-family="HelveticaNeue-Bold, Helvetica Neue" font-weight="700"><tspan x="0" y="0">Research</tspan></text>
        <ellipse id="Ellipse_2-2" data-name="Ellipse 2" cx="6" cy="6.5" rx="6" ry="6.5" transform="translate(669 427)"/>
        <path id="Path_752" data-name="Path 752" d="M6,29.25A3.75,3.75,0,0,1,9.75,25.5H30" transform="translate(657.5 463)" fill="none" stroke="#000" stroke-linecap="round" stroke-linejoin="round" stroke-width="3"/>
      </g>
    </g>
    <g id="Group_516" data-name="Group 516" transform="translate(12)">
      <text id="Design_template_And_system" data-name="Design template 
And system" transform="translate(906 568)" fill="#5a5a5a" font-size="11" font-family="HelveticaNeue-Light, Helvetica Neue" font-weight="300"><tspan x="-39.93" y="0">Design template </tspan><tspan x="-28.006" y="13">And system</tspan></text>
      <text id="Design" transform="translate(885 541)" fill="#313131" font-size="13" font-family="HelveticaNeue-Bold, Helvetica Neue" font-weight="700"><tspan x="0" y="0">Design</tspan></text>
      <circle id="Ellipse_3" data-name="Ellipse 3" cx="6.5" cy="6.5" r="6.5" transform="translate(900 427)"/>
      <g id="Group_511" data-name="Group 511" transform="translate(-9)">
        <path id="Icon_material-computer" data-name="Icon material-computer" d="M37.5,32.25a3.745,3.745,0,0,0,3.731-3.75L41.25,9.75A3.761,3.761,0,0,0,37.5,6H7.5A3.761,3.761,0,0,0,3.75,9.75V28.5A3.761,3.761,0,0,0,7.5,32.25H0V36H45V32.25ZM7.5,9.75h30V28.5H7.5Z" transform="translate(893 457)"/>
        <path id="Icon_feather-star" data-name="Icon feather-star" d="M11,3l2.472,5.008L19,8.816l-4,3.9.944,5.5L11,15.616l-4.944,2.6L7,12.712l-4-3.9,5.528-.808Z" transform="translate(904.5 465.657)" fill="none" stroke="#000" stroke-linecap="round" stroke-linejoin="round" stroke-width="2"/>
      </g>
    </g>
    <g id="Group_517" data-name="Group 517">
      <text id="Divided_the_project_into_phase1_and_2" data-name="Divided the project 
into phase1 and 2" transform="translate(992 572)" fill="#5a5a5a" font-size="11" font-family="HelveticaNeue-Light, Helvetica Neue" font-weight="300"><tspan x="0" y="0">Divided the project </tspan><tspan x="0" y="13">into phase1 and 2</tspan></text>
      <text id="Development" transform="translate(1038 541)" fill="#313131" font-size="13" font-family="HelveticaNeue-Bold, Helvetica Neue" font-weight="700"><tspan x="-41.041" y="0">Development</tspan></text>
      <circle id="Ellipse_4" data-name="Ellipse 4" cx="6.5" cy="6.5" r="6.5" transform="translate(1031 427)"/>
      <path id="Icon_material-developer-mode" data-name="Icon material-developer-mode" d="M10.5,7.5h15v3h3v-6a3,3,0,0,0-3-2.985L10.5,1.5a3.009,3.009,0,0,0-3,3v6h3ZM23.115,24.885,30,18l-6.885-6.885L21,13.245,25.755,18,21,22.755l2.115,2.13ZM15,22.755,10.245,18,15,13.245l-2.115-2.13L6,18l6.885,6.885ZM25.5,28.5h-15v-3h-3v6a3.009,3.009,0,0,0,3,3h15a3.009,3.009,0,0,0,3-3v-6h-3Z" transform="translate(1020 461.5)"/>
    </g>
    <g id="Group_515" data-name="Group 515" transform="translate(17)">
      <text id="Wireframe_" data-name="Wireframe " transform="translate(767 572)" fill="#5a5a5a" font-size="11" font-family="HelveticaNeue-Light, Helvetica Neue" font-weight="300"><tspan x="0" y="0">Wireframe </tspan></text>
      <text id="Wirefaming" transform="translate(757 541)" fill="#313131" font-size="13" font-family="HelveticaNeue-Bold, Helvetica Neue" font-weight="700"><tspan x="0" y="0">Wirefaming</tspan></text>
      <circle id="Ellipse_3-2" data-name="Ellipse 3" cx="6.5" cy="6.5" r="6.5" transform="translate(786 427)"/>
      <path id="Icon_awesome-draw-polygon" data-name="Icon awesome-draw-polygon" d="M27,24.75c-.025,0-.047.007-.072.007l-2.756-4.593a4.341,4.341,0,0,0,0-4.328l2.756-4.593c.025,0,.047.007.072.007A4.5,4.5,0,1,0,23.124,4.5H8.376A4.486,4.486,0,1,0,2.25,10.626V25.374A4.487,4.487,0,1,0,8.376,31.5H23.124A4.492,4.492,0,1,0,27,24.75Zm-20.25.624V10.626A4.488,4.488,0,0,0,8.376,9h14.65l-2.7,4.507c-.025,0-.047-.007-.072-.007a4.5,4.5,0,1,0,0,9c.025,0,.047-.007.072-.007L23.026,27H8.376A4.482,4.482,0,0,0,6.75,25.374ZM19.125,18a1.125,1.125,0,1,1,1.125,1.125A1.126,1.126,0,0,1,19.125,18Zm9-11.25A1.125,1.125,0,1,1,27,5.625,1.126,1.126,0,0,1,28.125,6.75ZM4.5,5.625A1.125,1.125,0,1,1,3.375,6.75,1.126,1.126,0,0,1,4.5,5.625ZM3.375,29.25A1.125,1.125,0,1,1,4.5,30.375,1.126,1.126,0,0,1,3.375,29.25ZM27,30.375a1.125,1.125,0,1,1,1.125-1.125A1.126,1.126,0,0,1,27,30.375Z" transform="translate(776 462.75)"/>
    </g>
  </g>
</svg>
