<svg xmlns="http://www.w3.org/2000/svg" width="709.266" height="86.828" viewBox="0 0 709.266 86.828">
  <g id="Group_509" data-name="Group 509" transform="translate(33.635 -0.232)">
    <circle id="Ellipse_1" data-name="Ellipse 1" cx="6.5" cy="6.5" r="6.5" transform="translate(12 0.232)" fill="#909090"/>
    <text id="IDEAS" transform="translate(0 46.232)" fill="#707070" font-size="15" font-family="HelveticaNeue, Helvetica Neue"><tspan x="0" y="0">IDEAS</tspan></text>
    <circle id="Ellipse_2" data-name="Ellipse 2" cx="6.5" cy="6.5" r="6.5" transform="translate(130 0.232)" fill="#909090"/>
    <text id="UI_FLOW" data-name="UI FLOW" transform="translate(106 46.232)" fill="#707070" font-size="15" font-family="HelveticaNeue, Helvetica Neue"><tspan x="0" y="0">UI FLOW</tspan></text>
    <path id="Icon_material-lightbulb-outline" data-name="Icon material-lightbulb-outline" d="M12.042,24.576a1.139,1.139,0,0,0,1.136,1.136H17.72a1.139,1.139,0,0,0,1.136-1.136V23.44H12.042ZM15.449,3a7.946,7.946,0,0,0-4.542,14.467v2.566a1.139,1.139,0,0,0,1.136,1.136h6.813a1.139,1.139,0,0,0,1.136-1.136V17.467A7.946,7.946,0,0,0,15.449,3Zm3.236,12.6-.965.681V18.9H13.178V16.286l-.965-.681a5.678,5.678,0,1,1,6.473,0Z" transform="translate(6.127 59.078)" fill="#909090"/>
    <g id="Group_2" data-name="Group 2" transform="translate(126.427 61.321)">
      <path id="Icon_metro-flow-line" data-name="Icon metro-flow-line" d="M19.011,20.974V10.361a3.331,3.331,0,1,0-2.775,0V20.975a3.329,3.329,0,1,0,2.775,0ZM17.624,5.419A1.922,1.922,0,1,1,15.7,7.341a1.921,1.921,0,0,1,1.921-1.922Zm0,20.5a1.922,1.922,0,1,1,1.921-1.922,1.922,1.922,0,0,1-1.921,1.922Z" transform="translate(-13.03 -4.01)" fill="#909090"/>
      <path id="Icon_metro-flow-line-2" data-name="Icon metro-flow-line" d="M4.718,16.964V6.35a3.331,3.331,0,1,0-2.775,0V16.965a3.329,3.329,0,1,0,2.775,0ZM3.331,1.409A1.922,1.922,0,1,1,1.41,3.331,1.921,1.921,0,0,1,3.331,1.409Zm0,20.5a1.922,1.922,0,1,1,1.921-1.922,1.922,1.922,0,0,1-1.921,1.922Z" transform="translate(17.326 4.081) rotate(48)" fill="#909090"/>
    </g>
    <circle id="Ellipse_4" data-name="Ellipse 4" cx="6.5" cy="6.5" r="6.5" transform="translate(608 0.232)" fill="#909090"/>
    <text id="PUBLISHED" transform="translate(579 46.232)" fill="#707070" font-size="15" font-family="HelveticaNeue, Helvetica Neue"><tspan x="0" y="0">PUBLISHED</tspan></text>
    <g id="Group_508" data-name="Group 508">
      <path id="Path_1" data-name="Path 1" d="M-52.183,0H657.083" transform="translate(18.548 6.435)" fill="none" stroke="#909090" stroke-width="1"/>
      <ellipse id="Ellipse_2-2" data-name="Ellipse 2" cx="6" cy="6.5" rx="6" ry="6.5" transform="translate(251 0.232)" fill="#909090"/>
      <text id="WIREFRME" transform="translate(217 46.232)" fill="#707070" font-size="15" font-family="HelveticaNeue, Helvetica Neue"><tspan x="0" y="0">WIREFRME</tspan></text>
      <path id="Icon_simple-pagekit" data-name="Icon simple-pagekit" d="M3.6,0V19.874h7.949V16.953H6.523V2.92H16.581V14.033H11.552v2.919H19.5V0Z" transform="translate(245.467 63.592)" fill="#909090"/>
      <circle id="Ellipse_3" data-name="Ellipse 3" cx="6.5" cy="6.5" r="6.5" transform="translate(367 0.232)" fill="#909090"/>
      <text id="DESIGN" transform="translate(345 46.232)" fill="#707070" font-size="15" font-family="HelveticaNeue, Helvetica Neue"><tspan x="0" y="0">DESIGN</tspan></text>
      <path id="Icon_simple-adobeillustrator" data-name="Icon simple-adobeillustrator" d="M0,.45V27.022H27.254V.45ZM1.136,1.586H26.118v24.3H1.136ZM9.454,15.5l-.9,3.4c-.019.094-.057.116-.168.116H6.719c-.114,0-.131-.037-.114-.168L9.831,7.555a3.5,3.5,0,0,0,.111-.946c0-.075.037-.114.094-.114h2.38c.075,0,.114.02.132.114l3.617,12.257c.019.094,0,.15-.094.15H14.2c-.094,0-.15-.023-.168-.1L13.092,15.5H9.45Zm3.166-1.845C12.3,12.4,11.552,9.645,11.271,8.314h-.019c-.243,1.329-.843,3.577-1.312,5.337ZM17.73,7.34a1.162,1.162,0,1,1,2.323,0A1.088,1.088,0,0,1,18.872,8.5,1.068,1.068,0,0,1,17.725,7.34Zm.127,2.582c0-.091.037-.125.132-.125h1.783c.1,0,.136.037.136.132v8.965c0,.094-.018.132-.131.132h-1.76c-.114,0-.151-.057-.151-.148V9.921Z" transform="translate(359.597 59.357)" fill="#909090"/>
      <circle id="Ellipse_3-2" data-name="Ellipse 3" cx="6.5" cy="6.5" r="6.5" transform="translate(491 0.232)" fill="#909090"/>
      <text id="PROGRAMING" transform="translate(446 46.232)" fill="#707070" font-size="15" font-family="HelveticaNeue, Helvetica Neue"><tspan x="0" y="0">PROGRAMING</tspan></text>
      <path id="Icon_awesome-laptop-code" data-name="Icon awesome-laptop-code" d="M13.575,13.928a.852.852,0,0,0,1.2,0l.6-.6a.852.852,0,0,0,0-1.2l-1.9-1.9,1.9-1.9a.852.852,0,0,0,0-1.2l-.6-.6a.852.852,0,0,0-1.2,0L10.469,9.618a.852.852,0,0,0,0,1.2l3.106,3.105Zm5.111-.6.6.6a.852.852,0,0,0,1.2,0L23.6,10.823a.852.852,0,0,0,0-1.2L20.492,6.513a.852.852,0,0,0-1.2,0l-.6.6a.852.852,0,0,0,0,1.2l1.9,1.9-1.9,1.9a.852.852,0,0,0,0,1.2Zm14.53,8.818H20.309a1.678,1.678,0,0,1-1.743,1.7H15.33a1.808,1.808,0,0,1-1.744-1.7H.852A.854.854,0,0,0,0,23v.852a3.417,3.417,0,0,0,3.407,3.407H30.66a3.417,3.417,0,0,0,3.407-3.407V23A.854.854,0,0,0,33.215,22.144ZM30.66,2.555A2.563,2.563,0,0,0,28.105,0H5.962A2.563,2.563,0,0,0,3.407,2.555V20.44H30.66ZM27.254,17.034H6.813V3.407h20.44Z" transform="translate(480.725 59.807)" fill="#909090"/>
    </g>
  </g>
</svg>
