<svg xmlns="http://www.w3.org/2000/svg" width="420.137" height="293" viewBox="0 0 420.137 293">
  <g id="Group_552" data-name="Group 552" transform="translate(1092 -1019)">
    <g id="Group_523" data-name="Group 523" transform="translate(-1172.863 879)">
      <g id="Group_522" data-name="Group 522" transform="translate(-5 15)">
        <g id="Group_521" data-name="Group 521">
          <g id="Group_520" data-name="Group 520" transform="translate(0 21.729)">
            <rect id="Rectangle_282" data-name="Rectangle 282" width="420" height="293" rx="13" transform="translate(86 103.271)" fill="#a2bfff"/>
            <path id="Path_762" data-name="Path 762" d="M0,0,420-.109V118a11,11,0,0,1-11,11H11A11,11,0,0,1,0,118V11C-.309,9.848,0,0,0,0Z" transform="translate(86 267.271)" fill="#a2bfff"/>
          </g>
        </g>
      </g>
    </g>
    <g id="chip" transform="translate(-955 1090.999)">
      <g id="Group_541" data-name="Group 541" transform="translate(27.387 0.001)">
        <g id="Group_540" data-name="Group 540" transform="translate(0 0)">
          <path id="Path_792" data-name="Path 792" d="M212.434,70.741H178.058V65.883h9.275a2.135,2.135,0,1,0,0-4.27h-9.275V56.756H184.5a8.921,8.921,0,0,0,6.35-2.63l14.042-14.042a6.695,6.695,0,1,0-3.019-3.019L187.828,51.106a4.68,4.68,0,0,1-3.331,1.38h-6.439V47.775A11.275,11.275,0,0,0,166.8,36.512h-4.711v-18.9a6.7,6.7,0,1,0-4.27,0v18.9h-4.858V27.237a2.135,2.135,0,0,0-4.27,0v9.275h-4.858V2.136a2.135,2.135,0,0,0-4.27,0V36.512H134.7V27.237a2.135,2.135,0,1,0-4.27,0v9.275h-4.858V30.073a8.921,8.921,0,0,0-2.631-6.35L108.9,9.676a6.7,6.7,0,1,0-3.019,3.019l14.046,14.047a4.679,4.679,0,0,1,1.38,3.331v6.439h-4.711a11.31,11.31,0,0,0-2.815.355A2.135,2.135,0,1,0,114.843,41a7.031,7.031,0,0,1,1.75-.22h50.2a7,7,0,0,1,6.993,6.993v50.2a7.033,7.033,0,0,1-.22,1.749,2.135,2.135,0,1,0,4.135,1.063,11.3,11.3,0,0,0,.354-2.812V93.266h18.9a6.7,6.7,0,1,0,0-4.27h-18.9V84.138h9.275a2.135,2.135,0,0,0,0-4.27h-9.275V75.011h34.376a2.135,2.135,0,1,0,0-4.27Zm-6.281-38.375a2.429,2.429,0,1,1-.711,1.717A2.412,2.412,0,0,1,206.153,32.366ZM104.619,8.418a2.428,2.428,0,1,1,0-3.435A2.432,2.432,0,0,1,104.619,8.418Zm55.331,5.275a2.429,2.429,0,1,1,2.429-2.429A2.432,2.432,0,0,1,159.949,13.692ZM203.306,88.7a2.429,2.429,0,1,1-2.429,2.429A2.432,2.432,0,0,1,203.306,88.7Z" transform="translate(-96.206 -0.001)"/>
        </g>
      </g>
      <g id="Group_543" data-name="Group 543" transform="translate(0 43.357)">
        <g id="Group_542" data-name="Group 542">
          <path id="Path_793" data-name="Path 793" d="M116.4,243.264a6.706,6.706,0,0,0-7.713-1.259L94.645,227.959a4.679,4.679,0,0,1-1.38-3.331v-6.439h4.711a11.3,11.3,0,0,0,2.814-.355,2.135,2.135,0,0,0-1.064-4.135,7.028,7.028,0,0,1-1.75.22h-50.2a7,7,0,0,1-6.993-6.993v-50.2a7.023,7.023,0,0,1,.22-1.75,2.135,2.135,0,0,0-4.135-1.065,11.287,11.287,0,0,0-.355,2.814v4.711h-18.9a6.7,6.7,0,1,0,0,4.27h18.9v4.858H27.236a2.135,2.135,0,0,0,0,4.27h9.275v4.858H2.135a2.135,2.135,0,0,0,0,4.27H36.511v4.858H27.236a2.135,2.135,0,0,0,0,4.27h9.275v4.858H30.072a8.921,8.921,0,0,0-6.35,2.63L9.68,214.617a6.693,6.693,0,1,0,3.02,3.019l14.042-14.042a4.68,4.68,0,0,1,3.331-1.38h6.439v4.711a11.275,11.275,0,0,0,11.263,11.263h4.711v18.9a6.7,6.7,0,1,0,4.27,0v-18.9h4.858v9.275a2.135,2.135,0,1,0,4.27,0v-9.275H70.74v34.376a2.135,2.135,0,0,0,4.27,0V218.189h4.858v9.275a2.135,2.135,0,1,0,4.27,0v-9.275H89v6.439a8.921,8.921,0,0,0,2.631,6.35l14.046,14.046a6.7,6.7,0,1,0,10.733-1.76ZM11.263,166a2.429,2.429,0,1,1,2.429-2.429A2.432,2.432,0,0,1,11.263,166ZM8.416,222.335a2.429,2.429,0,1,1,.711-1.717A2.413,2.413,0,0,1,8.416,222.335Zm48.632,21.1a2.429,2.429,0,1,1-2.429-2.429A2.432,2.432,0,0,1,57.048,243.437Zm56.337,6.281a2.428,2.428,0,1,1,0-3.435A2.432,2.432,0,0,1,113.385,249.718Z" transform="translate(0 -152.306)"/>
        </g>
      </g>
      <g id="Group_545" data-name="Group 545" transform="translate(50.203 47.922)">
        <g id="Group_544" data-name="Group 544">
          <path id="Path_794" data-name="Path 794" d="M221.7,187.59a10.312,10.312,0,0,0-7.912-9.691,7.288,7.288,0,0,0,.21-1.719c0-4.323-3.837-7.84-8.553-7.84a8.881,8.881,0,0,0-6.418,2.666,8.882,8.882,0,0,0-6.418-2.666c-4.716,0-8.553,3.517-8.553,7.84a7.289,7.289,0,0,0,.21,1.719,10.312,10.312,0,0,0-7.912,9.691,9.377,9.377,0,0,0,2.249,6.076,10.557,10.557,0,0,0-2.249,6.475,11,11,0,0,0,5.134,9.122v.005c0,4.952,4.413,8.981,9.837,8.981a10.187,10.187,0,0,0,7.7-3.4,10.187,10.187,0,0,0,7.7,3.4c5.22,0,9.5-3.732,9.816-8.427a9.979,9.979,0,0,0,5.155-8.541,9.623,9.623,0,0,0-2.969-6.846A9.625,9.625,0,0,0,221.7,187.59Zm-7.556,8.734a5.7,5.7,0,0,1,3.285,4.958,5.461,5.461,0,0,1-1.881,4.014,9.585,9.585,0,0,0-5.613-4.52,2.135,2.135,0,0,0-1.28,4.074,4.843,4.843,0,0,1,3.639,4.419c0,2.6-2.5,4.711-5.567,4.711s-5.566-2.113-5.566-4.711V195.576c0-2.6,2.5-4.711,5.566-4.711a2.135,2.135,0,0,0,0-4.27,10.437,10.437,0,0,0-5.566,1.582v-2.727a2.135,2.135,0,0,0-4.27,0V197.3a10.17,10.17,0,0,0-2.359-1.092,2.135,2.135,0,0,0-1.28,4.074,4.843,4.843,0,0,1,3.639,4.419v4.564c0,2.6-2.5,4.711-5.566,4.711s-5.567-2.113-5.567-4.711a4.3,4.3,0,0,1,1.329-3.047,2.135,2.135,0,0,0-3.01-3.029,9.081,9.081,0,0,0-1.318,1.655,6.513,6.513,0,0,1-2.135-4.707c0-3.163,2.483-5.942,6.037-6.758a2.135,2.135,0,0,0-.955-4.162,13.006,13.006,0,0,0-3.917,1.6,5.152,5.152,0,0,1-1.165-3.227c0-3.211,3.045-5.826,6.8-5.85.019,0,.038,0,.057,0a2.133,2.133,0,0,0,1.812-3.259c-.016-.026-.031-.053-.048-.078s-.019-.025-.028-.038c-.033-.046-.067-.092-.1-.136l0,0a3.169,3.169,0,0,1-.781-2.048c0-1.968,1.922-3.57,4.283-3.57s4.283,1.6,4.283,3.57a2.135,2.135,0,0,0,4.27,0c0-1.968,1.922-3.57,4.283-3.57s4.283,1.6,4.283,3.57a3,3,0,0,1-.32,1.344,11.857,11.857,0,0,0-3.5.879,2.135,2.135,0,1,0,1.659,3.935,7.707,7.707,0,0,1,2.951-.6l.061,0c.019,0,.038,0,.057,0,3.753.025,6.8,2.639,6.8,5.85a5.7,5.7,0,0,1-3.285,4.958,2.135,2.135,0,0,0,0,3.776Z" transform="translate(-176.357 -168.34)" fill="#f0bc5e"/>
        </g>
      </g>
    </g>
  </g>
</svg>
