<svg id="head" xmlns="http://www.w3.org/2000/svg" width="319.5" height="170.434" viewBox="0 0 319.5 170.434">
  <rect id="Rectangle_263" data-name="Rectangle 263" width="319.5" height="170.434" transform="translate(0 0)" fill="#165fd9" opacity="0.97"/>
  <g id="Group_422" data-name="Group 422" transform="translate(4.473 3.073)" opacity="0.9">
    <g id="Group_421" data-name="Group 421">
      <path id="Path_543" data-name="Path 543" d="M60.277,43.058l-.154-.544h-.235l-.159.544-.173-.544h-.237l.292.829h.236l.156-.533.159.533H60.4l.3-.829h-.241Z" transform="translate(-48.981 -34.588)" fill="#fff"/>
      <path id="Path_544" data-name="Path 544" d="M66.17,43.058l-.154-.544H65.78l-.159.544-.173-.544h-.237l.292.829h.237l.156-.533.159.533h.235l.3-.829h-.241Z" transform="translate(-53.401 -34.588)" fill="#fff"/>
      <path id="Path_545" data-name="Path 545" d="M72.061,43.058l-.154-.544h-.236l-.159.544-.172-.544H71.1l.291.829h.237l.156-.533.159.533h.235l.3-.829h-.24Z" transform="translate(-57.821 -34.588)" fill="#fff"/>
      <rect id="Rectangle_264" data-name="Rectangle 264" width="0.243" height="0.219" transform="translate(14.808 8.537)" fill="#fff"/>
      <path id="Path_546" data-name="Path 546" d="M79.834,42.466a.375.375,0,0,0-.1.11v-.118H79.5v.829h.244v-.255a1.168,1.168,0,0,1,.02-.278.173.173,0,0,1,.056-.092.149.149,0,0,1,.087-.025.227.227,0,0,1,.115.036l.076-.192a.335.335,0,0,0-.161-.042A.21.21,0,0,0,79.834,42.466Z" transform="translate(-64.123 -34.532)" fill="#fff"/>
      <path id="Path_547" data-name="Path 547" d="M83.223,43.015l0-.256a.4.4,0,0,0-.033-.2.231.231,0,0,0-.112-.088.639.639,0,0,0-.243-.035.514.514,0,0,0-.271.058.315.315,0,0,0-.129.178l.222.036a.162.162,0,0,1,.059-.08.193.193,0,0,1,.1-.023.226.226,0,0,1,.131.027.106.106,0,0,1,.035.09v.022a1.437,1.437,0,0,1-.236.054.9.9,0,0,0-.194.051.238.238,0,0,0-.1.085.216.216,0,0,0-.038.125.222.222,0,0,0,.082.176.335.335,0,0,0,.224.07.415.415,0,0,0,.152-.027A.441.441,0,0,0,83,43.2s0,.013.008.026a.587.587,0,0,0,.024.065h.24a.463.463,0,0,1-.043-.111A.8.8,0,0,1,83.223,43.015Zm-.237-.082a.388.388,0,0,1-.009.107.141.141,0,0,1-.058.073.228.228,0,0,1-.126.039.144.144,0,0,1-.1-.034.1.1,0,0,1-.038-.079.09.09,0,0,1,.048-.077.488.488,0,0,1,.133-.038c.068-.013.117-.024.148-.033Z" transform="translate(-66.307 -34.532)" fill="#fff"/>
      <path id="Path_548" data-name="Path 548" d="M87.78,41.567h-.3l-.285.292v-.607H86.95V42.4h.244v-.265l.113-.107.232.372H87.8l-.337-.526Z" transform="translate(-69.711 -33.641)" fill="#fff"/>
      <path id="Path_549" data-name="Path 549" d="M91.873,42.865a.8.8,0,0,1-.018.223.163.163,0,0,1-.068.077.208.208,0,0,1-.112.031.164.164,0,0,1-.09-.023.12.12,0,0,1-.049-.062.965.965,0,0,1-.013-.215v-.381h-.244v.525a.427.427,0,0,0,.033.183.225.225,0,0,0,.107.1.365.365,0,0,0,.167.037.406.406,0,0,0,.173-.038.353.353,0,0,0,.133-.1v.124h.226v-.829h-.243Z" transform="translate(-72.958 -34.589)" fill="#fff"/>
      <path id="Path_550" data-name="Path 550" d="M96.021,43.1l-.221-.589h-.259l.351.832a.315.315,0,0,1-.063.115.164.164,0,0,1-.126.044.6.6,0,0,1-.1-.01l.022.172a.723.723,0,0,0,.138.013.532.532,0,0,0,.124-.013.307.307,0,0,0,.093-.037.253.253,0,0,0,.067-.062.571.571,0,0,0,.061-.111l.058-.144.325-.8h-.252Z" transform="translate(-76.156 -34.589)" fill="#fff"/>
      <path id="Path_551" data-name="Path 551" d="M100.869,43.015l0-.256a.408.408,0,0,0-.033-.2.233.233,0,0,0-.112-.088.637.637,0,0,0-.242-.035.513.513,0,0,0-.271.058.313.313,0,0,0-.129.178l.222.036a.159.159,0,0,1,.059-.08.191.191,0,0,1,.1-.023.226.226,0,0,1,.131.027.106.106,0,0,1,.035.09v.022a1.447,1.447,0,0,1-.237.054.889.889,0,0,0-.194.051.242.242,0,0,0-.1.085.218.218,0,0,0-.038.125.22.22,0,0,0,.082.176.336.336,0,0,0,.224.07.416.416,0,0,0,.152-.027.45.45,0,0,0,.134-.083l.008.026a.68.68,0,0,0,.023.065h.241a.443.443,0,0,1-.043-.111A.8.8,0,0,1,100.869,43.015Zm-.236-.082a.374.374,0,0,1-.01.107.14.14,0,0,1-.058.073.228.228,0,0,1-.126.039.141.141,0,0,1-.1-.034.1.1,0,0,1-.038-.079.09.09,0,0,1,.048-.077.488.488,0,0,1,.133-.038c.068-.013.117-.024.148-.033Z" transform="translate(-79.546 -34.532)" fill="#fff"/>
      <rect id="Rectangle_265" data-name="Rectangle 265" width="0.244" height="0.219" transform="translate(21.654 8.537)" fill="#fff"/>
      <path id="Path_552" data-name="Path 552" d="M107.316,43.092a.174.174,0,0,1-.113.036.192.192,0,0,1-.149-.061.311.311,0,0,1-.054-.209.27.27,0,0,1,.054-.189.191.191,0,0,1,.146-.057.178.178,0,0,1,.111.033.156.156,0,0,1,.056.1l.24-.039a.36.36,0,0,0-.143-.2.48.48,0,0,0-.267-.066.454.454,0,0,0-.326.114.482.482,0,0,0,0,.638.447.447,0,0,0,.322.115.476.476,0,0,0,.284-.076.375.375,0,0,0,.143-.224l-.239-.037A.2.2,0,0,1,107.316,43.092Z" transform="translate(-84.566 -34.532)" fill="#fff"/>
      <path id="Path_553" data-name="Path 553" d="M111.529,42.439a.547.547,0,0,0-.246.054.39.39,0,0,0-.169.157.409.409,0,0,0-.06.211.458.458,0,0,0,.06.242.375.375,0,0,0,.175.152.58.58,0,0,0,.241.051.485.485,0,0,0,.34-.124A.4.4,0,0,0,112,42.87a.4.4,0,0,0-.133-.309A.488.488,0,0,0,111.529,42.439Zm.16.623a.228.228,0,0,1-.32,0,.306.306,0,0,1,0-.378.229.229,0,0,1,.32,0,.256.256,0,0,1,.065.188A.26.26,0,0,1,111.689,43.062Z" transform="translate(-87.796 -34.532)" fill="#fff"/>
      <path id="Path_554" data-name="Path 554" d="M117.137,42.476a.367.367,0,0,0-.172-.037.353.353,0,0,0-.15.033.407.407,0,0,0-.131.1.267.267,0,0,0-.107-.1.342.342,0,0,0-.154-.033.378.378,0,0,0-.288.132v-.113h-.224v.829h.244v-.4a.535.535,0,0,1,.019-.171.153.153,0,0,1,.064-.079.2.2,0,0,1,.1-.027.14.14,0,0,1,.075.017.1.1,0,0,1,.04.052.557.557,0,0,1,.013.156v.454h.244v-.4a.535.535,0,0,1,.02-.171.155.155,0,0,1,.065-.083.18.18,0,0,1,.1-.028.122.122,0,0,1,.1.047.326.326,0,0,1,.025.16v.474h.243v-.53a.433.433,0,0,0-.025-.172A.237.237,0,0,0,117.137,42.476Z" transform="translate(-91.44 -34.532)" fill="#fff"/>
      <rect id="Rectangle_266" data-name="Rectangle 266" width="0.244" height="0.219" transform="translate(26.158 8.537)" fill="#fff"/>
      <path id="Path_555" data-name="Path 555" d="M125.022,42.3a.073.073,0,0,1-.041-.011.052.052,0,0,1-.022-.027.764.764,0,0,1,0-.119V41.81h.167v-.175h-.167v-.293l-.244.128v.165H124.6v.175h.112v.362a.933.933,0,0,0,.008.155.181.181,0,0,0,.035.085.173.173,0,0,0,.077.052.35.35,0,0,0,.119.02.537.537,0,0,0,.193-.033l-.021-.17A.342.342,0,0,1,125.022,42.3Z" transform="translate(-97.958 -33.709)" fill="#fff"/>
      <path id="Path_556" data-name="Path 556" d="M72.223,19.365l-.342.036a2.1,2.1,0,0,1,.114.4l1.394-.148.062.195.421-.082-.33-.922-.421.112.119.287-.489.056a3.854,3.854,0,0,0,.808-1.388l-.427-.092a3.263,3.263,0,0,1-.267.666l-.308-.2A8.079,8.079,0,0,0,73,17.358l-.4-.154a7.879,7.879,0,0,1-.382.875l-.176-.071-.182.358a3.973,3.973,0,0,1,.8.466A4.906,4.906,0,0,1,72.223,19.365Z" transform="translate(-58.384 -15.598)" fill="#fff"/>
      <path id="Path_557" data-name="Path 557" d="M62.621,20.927a3.812,3.812,0,0,1-.745-.456h2.134v-.394H61.62v-.394h.358c.04,0,.063-.021.063-.056V17.557c0-.036-.023-.051-.063-.051h-.431l.1-.266-.41-.138-.148.4h-.37c-.033,0-.05.015-.05.051v2.069c0,.036.017.056.05.056h.439v.394H58.8v.394h2.134a6.457,6.457,0,0,1-2.111.814l.216.4a6.4,6.4,0,0,0,2.123-.891v1.013h.461V20.778a5.184,5.184,0,0,0,2.178.911l.211-.41A4.932,4.932,0,0,1,62.621,20.927ZM61.085,17.9l.017-.015h.5l.023.015v.512h-.541ZM61.6,19.3h-.5l-.017-.021v-.5h.541v.5C61.626,19.3,61.62,19.3,61.6,19.3Z" transform="translate(-48.588 -15.521)" fill="#fff"/>
      <path id="Path_558" data-name="Path 558" d="M58.524,19.37a2.489,2.489,0,0,1,.125.4L59.94,19.6l.034.21.427-.035a6.754,6.754,0,0,0-.194-.912l-.433.072.069.251-.41.056a3.993,3.993,0,0,0,.836-1.48l-.427-.1a3.158,3.158,0,0,1-.3.748l-.3-.2a7.657,7.657,0,0,0,.467-.942l-.4-.164a8.632,8.632,0,0,1-.4.9.716.716,0,0,0-.221-.107l-.188.354a4.228,4.228,0,0,1,.842.517,5.381,5.381,0,0,1-.433.553Z" transform="translate(-48.366 -15.521)" fill="#fff"/>
      <path id="Path_559" data-name="Path 559" d="M89.312,20.491l.375.364.319-.282a8.436,8.436,0,0,0-1.1-.973H89.92v-.415H85.7v-.317h3.937c.131,0,.194-.057.194-.175v-.9c0-.108-.057-.164-.188-.164H85.4c-.12,0-.183.056-.183.164v1.869a5.233,5.233,0,0,1-.478,2.314l.478.195a3.075,3.075,0,0,0,.3-.88,5.75,5.75,0,0,0,.188-1.465V19.6h1.024a7.705,7.705,0,0,1-.473.615l-.488.015.113.409,1.628-.071V20.9H85.961v.394H87.5v.394H85.58V22.1h4.409v-.415h-2V21.29h1.536V20.9H87.986v-.348ZM85.7,18.141a.067.067,0,0,1,.074-.072h3.5a.067.067,0,0,1,.074.072v.225a.066.066,0,0,1-.074.067H85.7Zm1.184,2.048c.171-.225.307-.425.415-.589h1.474l-.239.241.358.271Z" transform="translate(-68.05 -15.921)" fill="#fff"/>
      <path id="Path_560" data-name="Path 560" d="M122.254,20a2.755,2.755,0,0,1,.188.614l.41-.087a2.673,2.673,0,0,0-.193-.635Z" transform="translate(-96.199 -17.613)" fill="#fff"/>
      <path id="Path_561" data-name="Path 561" d="M111.568,28.814l-.409-.046A7.525,7.525,0,0,1,111,30.222l.4.072A9.144,9.144,0,0,0,111.568,28.814Z" transform="translate(-87.755 -24.274)" fill="#fff"/>
      <path id="Path_562" data-name="Path 562" d="M116.478,29.915l.393-.051-.176-1.116-.387.077Z" transform="translate(-91.738 -24.259)" fill="#fff"/>
      <path id="Path_563" data-name="Path 563" d="M119.573,20.231h.438V21.24c0,.128.074.195.211.195h1.3v-.4h-.957c-.079,0-.113-.031-.113-.1v-.7h1.326v1.413a.21.21,0,0,1-.125.19,1.283,1.283,0,0,1-.756-.051l.034.466a1.892,1.892,0,0,0,1.093-.051.466.466,0,0,0,.216-.41V17.86c0-.092-.057-.143-.165-.143h-2.8c-.1,0-.159.051-.159.143v4.429h.461Zm2.207-.394H120.9v-.4h.882Zm-2.207-1.7c0-.02.011-.03.034-.03h2.133c.029,0,.04.01.04.03v.9h-.518l.1-.235.171-.435-.4-.149a5.489,5.489,0,0,1-.341.819h-1.218Zm0,1.29h.888v.4h-.888Z" transform="translate(-93.842 -15.983)" fill="#fff"/>
      <path id="Path_564" data-name="Path 564" d="M112.467,19.836l.41-.036a8.47,8.47,0,0,0-.216-1.013l-.4.061.091.364-.558.082a4.56,4.56,0,0,0,1.018-1.572l-.421-.113a3.674,3.674,0,0,1-.421.87l-.348-.287a8.711,8.711,0,0,0,.535-.85l-.381-.2a7.465,7.465,0,0,1-.472.819l-.142-.087-.227.343a3.977,3.977,0,0,1,.8.6,5.423,5.423,0,0,1-.5.553l-.3.041a1.757,1.757,0,0,1,.119.379l.614-.071v2.145h.461V19.652l.3-.04Z" transform="translate(-87.703 -15.552)" fill="#fff"/>
      <path id="Path_565" data-name="Path 565" d="M17.912,14.256l.679.942.724-.552,0,2.841h2.253l-.926,1.032.756.973-.571.479.679.679,1.112-1.05-.71-.989.989-.9L23.92,19.03l1.406-.016.309.881.8-.155-.71-1.545H24.445l-.34-.708h1.714V14.735l.922.634.615-.984-4.72-3.614Zm2.687-.263a.309.309,0,1,1-.309.309A.309.309,0,0,1,20.6,13.994ZM23.811,15a.177.177,0,0,1-.064.243,3.634,3.634,0,0,1-1.838.529h0a3.226,3.226,0,0,1-1.976-.671.178.178,0,0,1,.231-.27,2.475,2.475,0,0,0,.469.289,2.923,2.923,0,0,0,1.277.3,3.286,3.286,0,0,0,1.664-.481A.177.177,0,0,1,23.811,15Zm-.617-1.008a.309.309,0,1,1-.309.309A.309.309,0,0,1,23.194,13.994Z" transform="translate(-17.912 -10.772)" fill="#fff"/>
    </g>
  </g>
  <rect id="Rectangle_267" data-name="Rectangle 267" width="2.707" height="2.917" transform="translate(95.865 116.495)" fill="#f8cc7f"/>
  <rect id="Rectangle_268" data-name="Rectangle 268" width="2.707" height="2.917" transform="translate(219.345 116.495)" fill="#f8cc7f"/>
  <g id="Group_424" data-name="Group 424" transform="translate(116.13 126.447)">
    <g id="Group_423" data-name="Group 423">
      <path id="Path_566" data-name="Path 566" d="M465.063,508.735a1.452,1.452,0,0,0,.427-.848l.154.04a1.61,1.61,0,0,1-.439.9Zm3.2-1.2s0,.059-.007.088c-.055.771-.11,1.056-.208,1.162a.285.285,0,0,1-.216.077,3.827,3.827,0,0,1-.479-.011.436.436,0,0,0-.047-.165,4.346,4.346,0,0,0,.46.022c.069,0,.106,0,.132-.036.08-.073.132-.325.179-.976h-2.55v-1.944h2.528v.161h-1.22v.438h1.1v.157h-1.1v.435h1.1v.154h-1.1v.438Zm-2.565-1.622v.438h.964v-.438Zm.964.6H465.7v.435h.964Zm-.964,1.027h.964V507.1H465.7Zm.464.431a3.523,3.523,0,0,1,.117.709l-.164.025a3.532,3.532,0,0,0-.1-.712Zm.621-.036a2.634,2.634,0,0,1,.23.625l-.15.048a2.957,2.957,0,0,0-.227-.643Zm.793.475a2.138,2.138,0,0,0-.347-.5l.131-.062a1.991,1.991,0,0,1,.351.482Z" transform="translate(-465.063 -505.527)" fill="#efebe9"/>
      <path id="Path_567" data-name="Path 567" d="M483.973,508.113v.175h-3.241v-.175h1.4v-2.9h.183v1.169h1.407v.172h-1.407v1.56Z" transform="translate(-476.819 -505.121)" fill="#efebe9"/>
      <path id="Path_568" data-name="Path 568" d="M499.2,506.393a1.616,1.616,0,0,0-.142-.208c-.574.04-.789.058-.888.073a3.937,3.937,0,0,0,1.3.636.611.611,0,0,0-.113.143,4.02,4.02,0,0,1-1.6-.95,3.247,3.247,0,0,1-1.516.983.753.753,0,0,0-.113-.142,3.3,3.3,0,0,0,1.191-.618l-.04.018a.663.663,0,0,0-.058-.11,4.74,4.74,0,0,0-.877.073.885.885,0,0,0-.058-.165.358.358,0,0,0,.154-.084,2.373,2.373,0,0,0,.4-.435l.164.077a3.025,3.025,0,0,1-.413.42l.533-.022a1.224,1.224,0,0,0-.124-.15l.132-.058a2.325,2.325,0,0,1,.278.362,1.9,1.9,0,0,0,.336-.427l.164.055c-.018.033-.036.062-.058.095a2,2,0,0,0,.219.212c-.007-.018-.018-.044-.026-.058a.234.234,0,0,0,.121-.077,1.544,1.544,0,0,0,.285-.395l.164.08a2.493,2.493,0,0,1-.289.366l.625-.037a2.369,2.369,0,0,0-.19-.194l.128-.066a2.479,2.479,0,0,1,.453.522Zm-.395-.72c-.055-.062-.132-.128-.215-.2a18.319,18.319,0,0,0-1.918.117,1.475,1.475,0,0,0-.055-.168.629.629,0,0,0,.219-.08,3.484,3.484,0,0,0,.621-.446l.164.088a4.034,4.034,0,0,1-.618.42l1.418-.062a4.383,4.383,0,0,0-.366-.252l.124-.08a4.154,4.154,0,0,1,.76.574Zm.088,1.659a3.865,3.865,0,0,1-2.174.891.676.676,0,0,0-.095-.153,3.747,3.747,0,0,0,2.119-.815Zm-.862-.742a3.928,3.928,0,0,1-1.217.61,1.075,1.075,0,0,0-.11-.121,3.654,3.654,0,0,0,1.188-.563Zm.406.369a4.185,4.185,0,0,1-1.556.705.586.586,0,0,0-.1-.132,4,4,0,0,0,1.52-.647Z" transform="translate(-488.367 -504.88)" fill="#efebe9"/>
      <path id="Path_569" data-name="Path 569" d="M513.242,505.772c-.077,1.626-.139,2.152-.278,2.316a.261.261,0,0,1-.223.11,3.548,3.548,0,0,1-.391,0,.426.426,0,0,0-.051-.179c.168.011.318.015.384.015a.136.136,0,0,0,.128-.051,6.083,6.083,0,0,0,.252-2.141h-.607a4.259,4.259,0,0,1-.65,2.433.621.621,0,0,0-.146-.106,3.967,3.967,0,0,0,.625-2.328h-.555v-.172h.559c.007-.234.011-.46.011-.672h.175c0,.215,0,.438-.011.672h.778Zm1.531-.307v2.762h-.179v-.248h-.844v.27h-.172v-2.784Zm-.179,2.342v-2.17h-.844v2.17Z" transform="translate(-500.024 -504.957)" fill="#efebe9"/>
      <path id="Path_570" data-name="Path 570" d="M527.789,506.594c-.15-.1-.442-.278-.665-.4l.1-.124c.219.113.519.278.668.38Zm-.566,1.578a10.305,10.305,0,0,0,.7-1.191l.128.113c-.194.384-.464.866-.672,1.195Zm.176-3.095a6.31,6.31,0,0,1,.7.387l-.1.143a7.282,7.282,0,0,0-.694-.409Zm1.966,1.195v.687h.778v1.359h-.168v-.139h-1.429v.161h-.164v-1.381h.815v-.687h-1.1V506.1h1.1v-.691c-.289.044-.581.073-.858.1a1.166,1.166,0,0,0-.051-.146,10.724,10.724,0,0,0,1.816-.318l.143.135a6.293,6.293,0,0,1-.88.2v.72h1.049v.168Zm.61.851h-1.429v.892h1.429Z" transform="translate(-511.627 -505.001)" fill="#efebe9"/>
      <path id="Path_571" data-name="Path 571" d="M545.858,506.045a6.262,6.262,0,0,1-.208,2.207.256.256,0,0,1-.227.11,3.708,3.708,0,0,1-.438-.007.487.487,0,0,0-.051-.168c.19.014.366.014.435.014s.1-.007.132-.047a6.571,6.571,0,0,0,.183-2.046h-.628a2.757,2.757,0,0,1-.88,2.287.57.57,0,0,0-.143-.117,1.625,1.625,0,0,0,.267-.23c-.588.073-1.2.146-1.629.2l-.029-.165c.223-.022.512-.051.822-.088v-.376h-.723v-.15h.723v-.27h-.716V506.13h.716v-.281h-.83v-.15h.83v-.307c-.245.025-.5.04-.727.051a.617.617,0,0,0-.047-.139,12.031,12.031,0,0,0,1.582-.179l.1.135a6.815,6.815,0,0,1-.742.117v.321h.818v.15h-.818v.281h.742V507.2h-.742v.27h.745v.15h-.745v.358c.248-.025.511-.058.767-.088v.04a3.25,3.25,0,0,0,.493-1.82H544.4v-.165h.49c.011-.27.011-.548.011-.833h.168q0,.427-.011.833h.8Zm-2.956.544h.559v-.318H542.9Zm.559.468v-.329H542.9v.329Zm.168-.785v.318h.585v-.318Zm.585.456h-.585v.329h.585Z" transform="translate(-523.262 -505.044)" fill="#efebe9"/>
      <path id="Path_572" data-name="Path 572" d="M558.528,510.916c-.117,0-.219.066-.318.252l-.128-.084a.541.541,0,0,1,.457-.34c.31,0,.5.358.727.358.121,0,.223-.066.318-.252l.132.088a.547.547,0,0,1-.457.336C558.944,511.274,558.761,510.916,558.528,510.916Z" transform="translate(-534.854 -509.271)" fill="#efebe9"/>
      <path id="Path_573" data-name="Path 573" d="M568.669,505.589h-1.663v-.164h.84a3.392,3.392,0,0,0-.19-.435l.161-.04a3.119,3.119,0,0,1,.216.475h.636Zm-1.136,1.454a2.641,2.641,0,0,1-.369.844,1,1,0,0,0-.139-.091,2.168,2.168,0,0,0,.351-.782Zm.424-.277v1.282c0,.1-.018.139-.084.165a1.255,1.255,0,0,1-.369.029.487.487,0,0,0-.058-.146c.143,0,.263,0,.3,0s.051-.011.051-.048v-1.282h-.563v-.826H568.5v.826Zm-.566-.154h.946v-.519h-.946Zm1.031,1.063a2.622,2.622,0,0,0-.259-.639l.128-.062a2.5,2.5,0,0,1,.281.636Zm.935-1.6a3.19,3.19,0,0,1-.826,2.185,1.119,1.119,0,0,0-.135-.1,3,3,0,0,0,.8-2.09h-.49v-.164h.5c.022-.333.026-.658.026-.95h.168c0,.3-.007.621-.025.95h.873v.164Zm.585,1.951a.325.325,0,0,0,.135-.018.135.135,0,0,0,.062-.1,2.689,2.689,0,0,0,.022-.391.318.318,0,0,0,.139.073,2.588,2.588,0,0,1-.033.417.187.187,0,0,1-.1.128.594.594,0,0,1-.2.029h-.237a.412.412,0,0,1-.2-.044c-.055-.036-.077-.088-.077-.3v-1.4h.161v1.429c0,.088.011.139.036.154a.239.239,0,0,0,.11.018Zm.029-2.276a2.369,2.369,0,0,0-.366-.526l.124-.073a2,2,0,0,1,.373.515Z" transform="translate(-541.55 -504.924)" fill="#efebe9"/>
      <path id="Path_574" data-name="Path 574" d="M583.646,505.636a3.933,3.933,0,0,1-.27.5h1.816v1.882c0,.131-.029.19-.132.219a2.8,2.8,0,0,1-.629.033,1.255,1.255,0,0,0-.062-.175c.27.011.5.007.566,0s.084-.022.084-.084v-.471h-1.685a1.316,1.316,0,0,1-.358.753.536.536,0,0,0-.12-.139,1.446,1.446,0,0,0,.336-1.067v-.687a3.08,3.08,0,0,1-.676.665,1.667,1.667,0,0,0-.106-.135,3.26,3.26,0,0,0,1.049-1.3h-.983v-.168h1.06a4.084,4.084,0,0,0,.172-.49l.172.04a4.58,4.58,0,0,1-.161.449h1.918v.168Zm1.374,1.75v-.468h-1.652v.179c0,.091,0,.186-.011.289Zm0-1.085h-1.652v.46h1.652Z" transform="translate(-553.108 -504.945)" fill="#efebe9"/>
      <path id="Path_575" data-name="Path 575" d="M598.558,506.853c-.04-.1-.139-.3-.223-.471v1.889h-.161v-1.922a4.629,4.629,0,0,1-.395,1.125.979.979,0,0,0-.1-.172,5.074,5.074,0,0,0,.471-1.454h-.4v-.168h.42v-.716h.161v.716h.318v.168h-.318v.289c.088.135.274.479.321.57Zm2.207.285a2.024,2.024,0,0,1-.479.614.609.609,0,0,0,.468.343c.08.007.132-.135.165-.406a.4.4,0,0,0,.131.084c-.062.373-.15.508-.289.5a.763.763,0,0,1-.607-.417,2.857,2.857,0,0,1-.68.391.711.711,0,0,0-.1-.11,2.816,2.816,0,0,0,.716-.416,2.936,2.936,0,0,1-.227-.72H599.2v.172a5.188,5.188,0,0,1,.53.468l-.117.113a3.893,3.893,0,0,0-.427-.406,1.4,1.4,0,0,1-.559.932.51.51,0,0,0-.117-.117,1.234,1.234,0,0,0,.534-1.038V507h-.314v-.15h1.107a13.7,13.7,0,0,1-.165-1.864h.157a12.255,12.255,0,0,0,.164,1.864h.957V507h-.928a3.451,3.451,0,0,0,.194.61,1.752,1.752,0,0,0,.391-.53Zm-1.213-.515a1.648,1.648,0,0,0-.051-.168,3.2,3.2,0,0,0-.705.124.76.76,0,0,0-.044-.153c.051-.007.117-.073.19-.161.04-.051.157-.194.274-.373a1.588,1.588,0,0,0-.446.088c-.007-.033-.033-.113-.047-.154.044-.007.088-.058.139-.131a3.424,3.424,0,0,0,.347-.658l.143.055a4.4,4.4,0,0,1-.4.694l.354-.036c.051-.088.1-.172.142-.259l.139.062a5.626,5.626,0,0,1-.585.83l.453-.055a2.607,2.607,0,0,0-.113-.27l.124-.036a3.211,3.211,0,0,1,.216.552Zm1.294-.073c-.011-.047-.029-.11-.051-.175a2.9,2.9,0,0,0-.709.128c-.011-.036-.036-.12-.055-.164.055-.007.113-.069.183-.165a3.056,3.056,0,0,0,.252-.362,1.547,1.547,0,0,0-.42.084.882.882,0,0,0-.048-.15c.044-.007.08-.055.128-.12a3.066,3.066,0,0,0,.289-.592l.142.051a3.666,3.666,0,0,1-.336.621l.336-.04c.047-.084.1-.179.139-.267l.146.062a5.375,5.375,0,0,1-.559.844l.464-.062c-.036-.091-.073-.182-.113-.263l.12-.033a3.154,3.154,0,0,1,.223.548Zm-.526-.073a2.364,2.364,0,0,1,.413.267l-.095.11a2.364,2.364,0,0,0-.413-.285Z" transform="translate(-564.568 -504.935)" fill="#efebe9"/>
      <path id="Path_576" data-name="Path 576" d="M615.17,505.019c-.018.022-.033.047-.051.07a3.62,3.62,0,0,0,1.571.826.533.533,0,0,0-.113.142,4.538,4.538,0,0,1-.924-.391v.121h-1.264v-.113a4.808,4.808,0,0,1-.921.406,1.722,1.722,0,0,0-.113-.143,3.246,3.246,0,0,0,1.659-.972Zm-1.363.99h2.4v.877h-2.4Zm.161.738h.957v-.6h-.957Zm.062.343h2.006v1.165h-.179v-.124H614.2v.139h-.172Zm.172.142v.307h1.655v-.307Zm1.655.756v-.307H614.2v.307Zm-1.48-1.772a1.5,1.5,0,0,1,.259.427l-.142.062a1.55,1.55,0,0,0-.252-.435Zm1.239-.574a2.833,2.833,0,0,1-.6-.446,2.687,2.687,0,0,1-.577.446Zm.431.5h-.965v.6h.965Zm-.669.508a4.9,4.9,0,0,0,.241-.453l.154.066a4.564,4.564,0,0,1-.267.442Z" transform="translate(-576.325 -504.935)" fill="#efebe9"/>
      <path id="Path_577" data-name="Path 577" d="M629.98,506.758c-.153.051-.314.1-.468.15v1.14c0,.117-.033.164-.1.2a1.306,1.306,0,0,1-.4.029.643.643,0,0,0-.059-.165c.154.008.289.008.325,0s.062-.015.062-.062v-1.089c-.168.055-.325.1-.46.15l-.062-.172c.143-.044.325-.095.522-.157V505.9h-.464v-.168h.464v-.767h.172v.767h.406v.168h-.406v.829l.446-.139Zm1.724,1.25c.234,0,.27-.113.3-.566a.478.478,0,0,0,.172.073c-.04.493-.1.654-.482.654H630.66c-.387,0-.5-.08-.5-.42v-2.583h1.8v1.863h-.179v-.252h-1.447v.976c0,.2.058.256.322.256Zm-1.377-2.671v1.275h.636v-1.275Zm1.447,0h-.643v1.275h.643Z" transform="translate(-587.927 -504.935)" fill="#efebe9"/>
      <path id="Path_578" data-name="Path 578" d="M648.993,506.325a.17.17,0,0,1,.179-.176.172.172,0,1,1-.179.176Zm.069.625h.212V508.9h-.212Z" transform="translate(-603.064 -505.824)" fill="#efebe9"/>
      <path id="Path_579" data-name="Path 579" d="M654,506.486h.69c.6,0,.972.2.972.749,0,.533-.365.789-.957.789h-.486v1.125H654Zm.661,1.355c.526,0,.778-.179.778-.606s-.263-.567-.793-.567h-.427v1.173Z" transform="translate(-606.819 -506.077)" fill="#efebe9"/>
      <path id="Path_580" data-name="Path 580" d="M663.74,505.52h.212v.833l0,.424a.95.95,0,0,1,.665-.351c.406,0,.592.252.592.753v1.246h-.212v-1.217c0-.406-.128-.592-.427-.592-.227,0-.387.117-.614.351v1.458h-.212Z" transform="translate(-614.129 -505.352)" fill="#efebe9"/>
      <path id="Path_581" data-name="Path 581" d="M672.591,510.175a.89.89,0,1,1,.881,1.019A.922.922,0,0,1,672.591,510.175Zm1.542,0c0-.5-.281-.841-.661-.841s-.658.343-.658.841.278.837.658.837S674.133,510.672,674.133,510.175Z" transform="translate(-620.77 -508.074)" fill="#efebe9"/>
      <path id="Path_582" data-name="Path 582" d="M682.8,509.2h.176l.026.3h.007a.959.959,0,0,1,.665-.347c.406,0,.592.252.592.753v1.246h-.212V509.93c0-.406-.128-.592-.427-.592-.227,0-.387.117-.614.351v1.458H682.8Z" transform="translate(-628.432 -508.074)" fill="#efebe9"/>
      <path id="Path_583" data-name="Path 583" d="M691.712,510.175a.932.932,0,0,1,.855-1.027c.471,0,.753.336.753.906a1.017,1.017,0,0,1-.011.154h-1.381a.737.737,0,0,0,.713.808.872.872,0,0,0,.519-.168l.08.157a1.091,1.091,0,0,1-.621.19A.923.923,0,0,1,691.712,510.175Zm1.414-.135c0-.471-.216-.709-.555-.709a.694.694,0,0,0-.643.709Z" transform="translate(-635.116 -508.074)" fill="#efebe9"/>
      <path id="Path_584" data-name="Path 584" d="M706.027,506.691a.557.557,0,0,0-.435-.212c-.4,0-.742.318-.753,1.235a.858.858,0,0,1,.643-.347c.453,0,.723.289.723.837a.782.782,0,0,1-.72.852c-.515,0-.855-.457-.855-1.3,0-1.074.457-1.454.957-1.454a.729.729,0,0,1,.566.256Zm-.033,1.512c0-.387-.161-.665-.541-.665a.8.8,0,0,0-.61.38c.033.585.241.957.647.957C705.778,508.875,705.994,508.59,705.994,508.2Z" transform="translate(-644.809 -505.934)" fill="#efebe9"/>
      <path id="Path_585" data-name="Path 585" d="M720.643,507.306v.168h-3.27v-.168h.387l-.073-1.969a5.526,5.526,0,0,0,.665-.285l.1.146a5.412,5.412,0,0,1-.6.234l.018.489h.541v.157h-.534l.018.53h.523v.157h-.515l.018.541H720.1c.011-.146.022-.329.029-.519h-.537v-.157h.545c.007-.175.014-.354.018-.537h-.548v-.157h.552c0-.19.007-.377.007-.548h-.588v-.161h.753c-.007.643-.025,1.546-.062,2.079Zm-2.021.373a5.219,5.219,0,0,1-1.074.658,1.245,1.245,0,0,0-.11-.135,4.063,4.063,0,0,0,1.016-.621Zm.318-1.239a2.146,2.146,0,0,1-.252.716c-.029-.022-.1-.062-.135-.084a1.617,1.617,0,0,0,.237-.654Zm.3-.223h-.6v-1.165h.157v.391h.621v.157h-.621v.464h.526v0h.077v.994c0,.088-.018.128-.084.157a1.187,1.187,0,0,1-.373.029.656.656,0,0,0-.055-.139c.153,0,.263,0,.307,0s.044-.015.044-.047Zm.256,1.356a7.988,7.988,0,0,1,1.074.621l-.12.132a7.431,7.431,0,0,0-1.052-.632Z" transform="translate(-654.369 -505.001)" fill="#efebe9"/>
      <path id="Path_586" data-name="Path 586" d="M734.028,507.8c-.46.135-.943.274-1.29.384l-.047-.176c.164-.044.373-.1.6-.168v-.983H732.8v-.164h.493v-.862h-.545v-.164h1.235v.164h-.519v.862h.49v.164h-.49v.935l.544-.157Zm1.772.8c.095,0,.113-.051.124-.435a.4.4,0,0,0,.154.07c-.014.42-.066.522-.259.522h-.4c-.223,0-.277-.051-.277-.252v-.877H734.7a1.251,1.251,0,0,1-.964,1.18.517.517,0,0,0-.106-.146,1.1,1.1,0,0,0,.9-1.034h-.362v-1.98h1.67v1.98h-.523v.873c0,.08.018.1.124.1Zm-1.465-2.346h1.33v-.449h-1.33Zm0,.607h1.33v-.453h-1.33Zm0,.61h1.33v-.46h-1.33Z" transform="translate(-665.862 -505.45)" fill="#efebe9"/>
      <path id="Path_587" data-name="Path 587" d="M750.04,504.92a.911.911,0,0,1-.084.12,3.97,3.97,0,0,0,1.6,1.045.884.884,0,0,0-.128.157,4.464,4.464,0,0,1-1.571-1.074,3.806,3.806,0,0,1-1.564,1.081.653.653,0,0,0-.121-.165,3.416,3.416,0,0,0,1.714-1.239Zm-.1,2.978h1.5v.164H748.29V507.9h1.469v-1.009h-1.312v-.164h1.312v-.566h-.818v-.168h1.841v.168h-.844v.566h1.345v.164h-1.345Zm-.99-.859a3.089,3.089,0,0,1,.358.683l-.157.066a3.246,3.246,0,0,0-.351-.694Zm1.392.694a4.829,4.829,0,0,0,.409-.7l.172.069a7.447,7.447,0,0,1-.449.7Z" transform="translate(-677.475 -504.847)" fill="#efebe9"/>
      <path id="Path_588" data-name="Path 588" d="M766.627,505.761v.369c0,.095.011.121.077.121h.336a.885.885,0,0,0,.172-.011c.007.044.011.106.018.146a1.252,1.252,0,0,1-.186.011h-.351c-.187,0-.227-.069-.227-.27v-.366h-.4v.607H765.2v-.607h-.383c-.022.256-.146.552-.665.745a.553.553,0,0,0-.1-.124c.471-.153.581-.406.6-.621h-.625v-.154h.628V505.2h.165v.409h.38v-.4h.161v.4h.541v-.4h.164v.4h.4V505.2h.161v.409h.6v.154Zm-2.51.8h3.047v.65h-.172v-.493h-2.708v.493h-.168Zm2.7,1.447c0,.106-.022.153-.11.186a2.452,2.452,0,0,1-.548.026.663.663,0,0,0-.058-.154c.23,0,.424,0,.475,0s.069-.018.069-.062v-.705h-.932v1.14h-.175v-1.14h-.884v.932h-.168v-1.085h1.052v-.358h.175v.358h1.1Zm-.91-2.251h-.541v.457h.541Z" transform="translate(-689.375 -505.11)" fill="#efebe9"/>
      <path id="Path_589" data-name="Path 589" d="M782.947,505.622v3.142h-.179v-.2h-2.645v.2h-.175v-3.142Zm-.179,2.777v-2.6h-2.645v2.6Zm-.643-1.951v1.283h-1.37v-1.283Zm-.172.165h-1.03v.957h1.03Z" transform="translate(-701.318 -505.428)" fill="#efebe9"/>
      <path id="Path_590" data-name="Path 590" d="M797.979,506.334a6.539,6.539,0,0,1-.618.456,1.887,1.887,0,0,0,1.052,1.147.566.566,0,0,0-.117.143,2.089,2.089,0,0,1-1.074-1.2c-.073.047-.146.091-.216.131a1.092,1.092,0,0,1-.161,1.107.464.464,0,0,1-.34.106c-.077,0-.2,0-.318-.011a.467.467,0,0,0-.047-.164c.128.011.259.018.329.018a.358.358,0,0,0,.256-.069.858.858,0,0,0,.161-.778,5.119,5.119,0,0,1-1.615.826.664.664,0,0,0-.1-.154,4.187,4.187,0,0,0,1.67-.844,1.5,1.5,0,0,0-.124-.329,5.574,5.574,0,0,1-1.381.672,1.1,1.1,0,0,0-.1-.146,4.512,4.512,0,0,0,1.4-.65,1.634,1.634,0,0,0-.216-.274,5.439,5.439,0,0,1-1.089.464.509.509,0,0,0-.1-.142,4.328,4.328,0,0,0,1.363-.607h-.935v-.161h2.145v.161h-.979a2.378,2.378,0,0,1-.274.208,1.746,1.746,0,0,1,.406.625,6.709,6.709,0,0,0,.87-.643Zm-2.55-.362h-.172v-.705h1.407a2.137,2.137,0,0,0-.168-.311l.172-.051a2.118,2.118,0,0,1,.2.362h1.389v.705h-.176v-.541h-2.653Z" transform="translate(-712.744 -504.891)" fill="#efebe9"/>
      <path id="Path_591" data-name="Path 591" d="M811.05,508.857a.191.191,0,0,1,.186-.2.2.2,0,1,1-.186.2Zm.08-2.255,0-.307h.219l0,.307-.025,1.663h-.157Z" transform="translate(-724.655 -505.934)" fill="#efebe9"/>
      <path id="Path_592" data-name="Path 592" d="M507.763,528.119a4.63,4.63,0,0,1-.311.953c.08.037.165.117.325.212a1.961,1.961,0,0,0,1.023.186c.5,0,1.063-.033,1.472-.066a.554.554,0,0,0-.055.186c-.256.015-.979.037-1.421.037a2.022,2.022,0,0,1-1.078-.2c-.146-.088-.285-.216-.369-.216s-.2.216-.318.46l-.128-.143a1.28,1.28,0,0,1,.384-.464,3.594,3.594,0,0,0,.274-.819h-.5a7.955,7.955,0,0,0,.369-.833h-.479v-.164h.724c-.113.27-.252.592-.366.84h.322l.036-.007ZM507.324,527c-.036-.154-.117-.4-.175-.585l.153-.044c.062.186.146.424.186.577Zm2.879.478h-2.422v-.146H510.2Zm-.979,1.451c0,.04.007.1.011.135a4.319,4.319,0,0,0-.851.241.494.494,0,0,0-.066-.15.181.181,0,0,0,.135-.19v-.288a3.732,3.732,0,0,1-.534.223.6.6,0,0,0-.1-.128,3.561,3.561,0,0,0,.976-.446h-.687v-.639h1.776v.639h-.866a2.941,2.941,0,0,1-.4.267v.479Zm.771-1.8h-2.009v-.661H510Zm-1.407-.53h-.446v.4h.446Zm-.314,1.6h1.436v-.376h-1.436Zm.935-1.6h-.467v.4h.467Zm.786,2.612c-.215-.172-.639-.464-.972-.672l.091-.106c.1.066.212.135.322.208a4.99,4.99,0,0,0,.486-.3l.128.08a3.365,3.365,0,0,1-.5.3c.208.135.409.27.537.373Zm-.164-2.612h-.471v.4h.471Z" transform="translate(-496.456 -521)" fill="#efebe9"/>
      <path id="Path_593" data-name="Path 593" d="M523.837,526.917a3.942,3.942,0,0,1-.27.5h1.816V529.3c0,.132-.029.19-.132.219a2.807,2.807,0,0,1-.628.033,1.3,1.3,0,0,0-.062-.175c.27.011.5.007.566,0s.084-.022.084-.084v-.471h-1.685a1.318,1.318,0,0,1-.358.753.541.541,0,0,0-.121-.139,1.446,1.446,0,0,0,.336-1.067v-.687a3.072,3.072,0,0,1-.676.665,1.667,1.667,0,0,0-.106-.135,3.259,3.259,0,0,0,1.049-1.3h-.983v-.168h1.06a4.077,4.077,0,0,0,.172-.489l.172.04a4.665,4.665,0,0,1-.161.449h1.918v.168Zm1.374,1.75V528.2h-1.652v.179c0,.091,0,.186-.011.288Zm0-1.085h-1.652v.46h1.652Z" transform="translate(-508.234 -520.912)" fill="#efebe9"/>
      <path id="Path_594" data-name="Path 594" d="M538.7,530.243h.6v-2.167h-.464v-.143a1.534,1.534,0,0,0,.508-.168h.172v2.477h.555v.186H538.7Z" transform="translate(-520.309 -522.043)" fill="#efebe9"/>
      <path id="Path_595" data-name="Path 595" d="M547.872,526.65h-.852v-.157h.852v-.248h.172v.248h.49v.157h-.49v.27h-.172Zm2.159,2.693c0,.1-.022.15-.1.179a1.939,1.939,0,0,1-.5.029.469.469,0,0,0-.058-.15c.212,0,.373,0,.42,0s.066-.014.066-.058v-.873h-1.173v.46l.585-.026a2.373,2.373,0,0,0-.223-.274l.135-.058a2.144,2.144,0,0,1,.446.647l-.143.062a1.924,1.924,0,0,0-.117-.23c-.625.033-1.271.066-1.706.084l-.011-.164c.227-.007.533-.018.866-.033v-.468h-1.144v1.089H547.2v-1.089h-.15v-.153h.15v-.15h.172v.15h1.144v-.27h-1.074v-1.07h2.342v1.07h-1.1v.27h1.344Zm-2.419-1.9h.906v-.325h-.906Zm.906.464v-.325h-.906v.325Zm1.666-1.411v.157h-.866v.274h-.172v-.274h-.471v-.157h.471v-.248h.172v.248Zm-.574.621h-.924v.325h.924Zm0,.464h-.924v.325h.924Z" transform="translate(-526.555 -520.901)" fill="#efebe9"/>
      <path id="Path_596" data-name="Path 596" d="M563.28,528.09c-.073-.128-.274-.4-.417-.588v2.061H562.7v-1.944a4.471,4.471,0,0,1-.526,1.187,1.079,1.079,0,0,0-.11-.15,4.692,4.692,0,0,0,.618-1.512h-.556v-.168h.574v-.716h.168v.716h.486v.168h-.486v.135c.113.124.464.555.544.665Zm1.294-1.407a4.077,4.077,0,0,1-.2.482v2.386H564.2v-2.057a3.57,3.57,0,0,1-.808.965.957.957,0,0,0-.135-.139,3.6,3.6,0,0,0,1.133-1.637h-1.023v-.168h1.958v.168Zm-.007.669a7.384,7.384,0,0,1,.785.954l-.142.113a7.489,7.489,0,0,0-.771-.979Z" transform="translate(-537.839 -520.912)" fill="#efebe9"/>
      <path id="Path_597" data-name="Path 597" d="M579.742,527.377a8.881,8.881,0,0,1,1.341.844l-.095.146a8.419,8.419,0,0,0-1.458-.924v.7h-.175v-.727a3.872,3.872,0,0,1-1.429.921,1.467,1.467,0,0,0-.124-.146,3.731,3.731,0,0,0,1.378-.815h-1.334v-.165h1.509v-.461c-.391.04-.8.069-1.177.091a.82.82,0,0,0-.047-.153,13.991,13.991,0,0,0,2.375-.285l.146.139a9.3,9.3,0,0,1-1.122.19v.479h1.524v.165Zm-1.352.877h2.163v1.414h-.175v-.135h-1.816v.143h-.172Zm.172.15v.409h1.816V528.4Zm1.816.979v-.428h-1.816v.428Z" transform="translate(-549.65 -521.022)" fill="#efebe9"/>
      <path id="Path_598" data-name="Path 598" d="M594.318,527.081h.354v2.389h-.146v-.223h-.906v.278h-.142v-2.444h.354v-.533h-.449v-.154h1.378v.154h-.442Zm.208,2.013v-1.045h-.179c-.124,0-.164-.025-.164-.179v-.632h-.208v.3a1.026,1.026,0,0,1-.274.749.533.533,0,0,0-.08-.077v.888Zm-.906-1.856v.939a.89.89,0,0,0,.226-.643v-.3Zm.113,1.257h.672v.146h-.672Zm.241-1.414h.2v-.533h-.2Zm.552.157h-.219v.632c0,.044.007.048.047.048h.124a.124.124,0,0,0,.047,0Zm2.134,1.571h-.84v.5c0,.11-.022.157-.113.186a2.121,2.121,0,0,1-.5.026.746.746,0,0,0-.058-.157c.223,0,.387,0,.438,0s.066-.018.066-.058v-.5h-.891v-.157h.891v-.2a2.493,2.493,0,0,0,.526-.3h-1.239V528h1.41l.036-.007.106.08a2.481,2.481,0,0,1-.669.446v.135h.84Zm-.007-2.075H594.8v-.157h.851a1.384,1.384,0,0,0-.15-.3l.146-.058a1.23,1.23,0,0,1,.179.362h.826Zm-1.63,1v-.76h1.418v.76Zm.161-.146h1.092v-.468h-1.092Z" transform="translate(-561.341 -520.879)" fill="#efebe9"/>
      <path id="Path_599" data-name="Path 599" d="M609.5,528.652v.384h-.154v-2.463h.771v2.079Zm0-1.925V528.5h.464v-1.772Zm1.841.314s0,.077,0,.1a6.833,6.833,0,0,1-.2,2.276.236.236,0,0,1-.2.106c-.073,0-.194,0-.311,0a.413.413,0,0,0-.044-.168c.132.011.252.015.307.015a.1.1,0,0,0,.106-.055,7.276,7.276,0,0,0,.183-2.108h-.387a3.432,3.432,0,0,1-.669,2.4.5.5,0,0,0-.135-.11,3.2,3.2,0,0,0,.647-2.295h-.358v-.161h.362c.008-.238.008-.486.008-.738h.157c0,.252,0,.5-.007.738Zm1.049-.314v2.715h-.157v-.292h-.566v.318h-.154v-2.741Zm-.157,2.258v-2.094h-.566v2.094Z" transform="translate(-573.317 -520.945)" fill="#efebe9"/>
      <path id="Path_600" data-name="Path 600" d="M625.6,528.612h-.647v.365h-.161v-2.334h.807Zm-.647-1.8v1.637h.486v-1.637Zm1.589-.515h.172v1.48a2.942,2.942,0,0,1-.471,1.834.836.836,0,0,0-.142-.106,1.934,1.934,0,0,0,.4-.994c-.241.051-.479.1-.68.142l-.044-.179c.2-.029.46-.08.745-.131q.022-.252.022-.482h-.585v-.164h.585v-.6H625.9v-.164h.643Zm1.421,2.349h-.723v.935h-.172v-3.288h.172v.636h.672v.164h-.672v.6h.61v.161h-.61v.621h.723Z" transform="translate(-584.909 -520.934)" fill="#efebe9"/>
      <path id="Path_601" data-name="Path 601" d="M639.878,537.883a.553.553,0,0,0,.322-.49.174.174,0,0,1-.044,0,.179.179,0,0,1-.19-.186.183.183,0,0,1,.194-.183c.131,0,.219.121.219.314a.76.76,0,0,1-.438.68Z" transform="translate(-596.225 -528.992)" fill="#efebe9"/>
      <path id="Path_602" data-name="Path 602" d="M644.922,526.62a2.772,2.772,0,0,1-.373.464c-.033-.029-.095-.088-.135-.117a2.2,2.2,0,0,0,.563-.811l.165.04a2.5,2.5,0,0,1-.128.267h1.027v.157Zm1.966,1.768h.753v.157h-.753v.723c0,.128-.033.175-.135.2a3.2,3.2,0,0,1-.632.029.724.724,0,0,0-.062-.161c.289.011.5.007.574,0s.08-.018.08-.073v-.723h-2.269v-.157h2.269v-.3h.176Zm.822-1.926v.161h-1.217a2.012,2.012,0,0,1-.307.449.349.349,0,0,0-.051-.044v.256h1.359v.161h-1.359v.395H647.3v.154h-2.528v-.154h1.184v-.395H644.6v-.161h1.355v-.259h.176c-.029-.022-.062-.047-.084-.062a1.871,1.871,0,0,0,.445-.8l.168.033a1.406,1.406,0,0,1-.1.27Zm-2.521,2.181a6.562,6.562,0,0,1,.665.555l-.132.11a6.553,6.553,0,0,0-.658-.574Zm.084-2.01a4.488,4.488,0,0,1,.4.38l-.124.1a3.357,3.357,0,0,0-.395-.4Zm1.586.026a3.384,3.384,0,0,1,.362.384l-.124.11a2.873,2.873,0,0,0-.354-.406Z" transform="translate(-599.629 -520.835)" fill="#efebe9"/>
      <path id="Path_603" data-name="Path 603" d="M660.582,526.35a5.642,5.642,0,0,1-.395.8v2.441h-.168v-2.177a3.587,3.587,0,0,1-.446.548.7.7,0,0,0-.106-.157,4.367,4.367,0,0,0,.95-1.505Zm1.261.837v2.174c0,.121-.029.175-.11.208a1.659,1.659,0,0,1-.453.033.923.923,0,0,0-.062-.179c.183.007.344,0,.391,0s.062-.015.062-.062v-2.174h-.64a3.215,3.215,0,0,1-.358.672c-.029-.022-.1-.08-.146-.106a3.846,3.846,0,0,0,.592-1.447l.172.036a5.786,5.786,0,0,1-.2.676h1.615l.036-.007.113.036c-.048.248-.113.552-.161.731l-.15-.029c.033-.143.077-.362.106-.563Zm-.588.654a3.764,3.764,0,0,1-.555,1.26c-.033-.025-.11-.073-.154-.1a3.214,3.214,0,0,0,.537-1.195Zm1.089-.055a4.743,4.743,0,0,1,.49,1.246l-.168.055a4.891,4.891,0,0,0-.475-1.25Z" transform="translate(-610.924 -520.945)" fill="#efebe9"/>
      <path id="Path_604" data-name="Path 604" d="M678.681,532.331v.194h-3.31v-.194Z" transform="translate(-622.856 -525.468)" fill="#efebe9"/>
      <path id="Path_605" data-name="Path 605" d="M691.7,529.16a2.356,2.356,0,0,0,.9.128c.117,0,1.315,0,1.48,0a.647.647,0,0,0-.08.176h-1.4c-.84,0-1.268-.146-1.52-.713a2.157,2.157,0,0,1-.245.826c-.029-.022-.11-.073-.146-.095a3.384,3.384,0,0,0,.285-1.6l.172.011c-.008.179-.015.351-.029.515a1.187,1.187,0,0,0,.417.665v-1.524h-.778v-.165h.731v-.533h-.64v-.161h.64v-.446h.168v.446h.555v.161h-.555v.533h.643v.165h-.6v.628h.566v.161H691.7Zm1.217-.154c-.31,0-.406-.069-.406-.358v-2.21h1.334v1.286H692.68v.924c0,.157.04.194.237.194h.756c.168,0,.2-.1.219-.537a.457.457,0,0,0,.161.073c-.029.482-.08.628-.38.628Zm-.234-2.411v.968h.99v-.968Z" transform="translate(-634.349 -520.901)" fill="#efebe9"/>
      <path id="Path_606" data-name="Path 606" d="M708.086,527.87a3.276,3.276,0,0,0,1.586,1.37.755.755,0,0,0-.131.157,3.706,3.706,0,0,1-1.454-1.217v1.381h-.179v-1.388a4.036,4.036,0,0,1-1.44,1.2,1.127,1.127,0,0,0-.124-.143,3.643,3.643,0,0,0,1.564-1.348v-.917h-1.454V526.8h1.454v-.537h.179v.537h1.495v.172h-1.495Zm-.793-.749a2.49,2.49,0,0,1-.15.457,5.783,5.783,0,0,1,.45.449l-.124.117a4.426,4.426,0,0,0-.4-.413,2,2,0,0,1-.489.621.888.888,0,0,0-.143-.113,1.988,1.988,0,0,0,.683-1.147Zm1.728,0a2.723,2.723,0,0,1-.132.453,8.134,8.134,0,0,1,.7.614l-.128.124a6.617,6.617,0,0,0-.636-.592,1.77,1.77,0,0,1-.365.511.78.78,0,0,0-.143-.106,1.753,1.753,0,0,0,.533-1.03Z" transform="translate(-646.094 -520.912)" fill="#efebe9"/>
      <path id="Path_607" data-name="Path 607" d="M723.009,526.613a2.947,2.947,0,0,1-.994,1.462.872.872,0,0,0-.15-.128,2.568,2.568,0,0,0,.964-1.374Zm1.626,1.242s0,.069,0,.095c-.062,1.144-.117,1.56-.245,1.7a.321.321,0,0,1-.252.1c-.117.007-.354,0-.592-.015a.392.392,0,0,0-.062-.175c.263.022.512.025.592.025s.124-.007.157-.044c.11-.1.168-.486.223-1.513h-1.078a1.87,1.87,0,0,1-1.26,1.754.835.835,0,0,0-.11-.143,1.688,1.688,0,0,0,1.184-1.611h-.822v-.168Zm-.46-1.334a2.6,2.6,0,0,0,1.034,1.4.716.716,0,0,0-.124.15,2.789,2.789,0,0,1-1.034-1.381h-.691v-.164Z" transform="translate(-657.74 -521.11)" fill="#efebe9"/>
      <path id="Path_608" data-name="Path 608" d="M740.779,528.751h-1.531v.523c0,.117-.033.164-.131.19a3.224,3.224,0,0,1-.629.025.664.664,0,0,0-.066-.15c.274.008.5.008.563,0s.084-.018.084-.069v-.523h-1.52v-.161h1.52v-.256a4.727,4.727,0,0,0,.906-.267h-2.094v-.154h2.375l.044-.011.128.1a4.588,4.588,0,0,1-1.18.427v.157h1.531Zm-.036-2.079h-3.168v-.157h1.553a2.823,2.823,0,0,0-.168-.332l.172-.04a3.972,3.972,0,0,1,.194.373h1.418Zm-2.686.972v-.694h2.225v.694Zm.176-.143H740.1V527.1h-1.871Z" transform="translate(-669.507 -520.825)" fill="#efebe9"/>
      <path id="Path_609" data-name="Path 609" d="M753.562,529.029v.365h-.168V527.06h.862v1.969Zm0-1.8v1.637h.526v-1.637Zm1.136.819a3.544,3.544,0,0,1-.457,1.966.469.469,0,0,0-.135-.1,3.332,3.332,0,0,0,.427-1.889v-1.173h1.856v.745H754.7v.3h1.845v.154h-1.016a4.177,4.177,0,0,1-.457.552l1-.069a3.227,3.227,0,0,0-.288-.3l.128-.07a2.739,2.739,0,0,1,.49.581l-.132.077c-.025-.044-.055-.095-.091-.146a8.975,8.975,0,0,0-1.348.132h0v-.018a1.394,1.394,0,0,0-.047-.15.4.4,0,0,0,.168-.12,2.822,2.822,0,0,0,.369-.464Zm1.86,1.717v.154h-2.01v-.154h.939v-.482h-.709v-.15h.709v-.387h.164v.387h.753v.15h-.753v.482ZM754.7,527v.438h1.527V527Z" transform="translate(-681.396 -521.351)" fill="#efebe9"/>
      <path id="Path_610" data-name="Path 610" d="M769.107,530.137a.191.191,0,0,1,.186-.2.2.2,0,1,1-.186.2Zm.08-2.254,0-.307h.219l0,.307-.026,1.662h-.157Z" transform="translate(-693.185 -521.9)" fill="#efebe9"/>
    </g>
  </g>
  <path id="Path_611" data-name="Path 611" d="M564.695,116.5c-.422-.562-.961-1.265-1.36-1.921a18.769,18.769,0,0,1-1.474,1.921H559a19.86,19.86,0,0,0,3.163-3.774c-.844-1.36-1.782-2.931-2.439-4.1a2.552,2.552,0,0,1-.117-1.688c.282-1.454.68-3.752.868-5.394h-1.642V99.9h2.043c.188-1.1.153-.736.322-1.831h1.834c-.134.846-.134.846-.275,1.831h1.987a2.084,2.084,0,0,1,1.337.445,2.143,2.143,0,0,1,.727,1.853c-.188,3.682-.586,7.294-2.275,10.343a47.866,47.866,0,0,0,2.931,3.961Zm-.468-14.961h-1.759c-.234,1.735-.657,4.315-.915,5.723a1.037,1.037,0,0,0,.118.657c.492.844,1.125,1.923,1.618,2.7a21.587,21.587,0,0,0,1.572-8.419A.636.636,0,0,0,564.226,101.538Zm10.108,6.595v6.505A1.983,1.983,0,0,1,572.2,116.8h-2.252l-.8-1.689h2.533a.5.5,0,0,0,.492-.493v-6.482h-5.066v-1.595h5.066v-3.124a26.022,26.022,0,0,0,2.531-3.449.165.165,0,0,0-.141-.258h-6.706V98.065h7.878a1.333,1.333,0,0,1,1.126.68,2.123,2.123,0,0,1,.02,1.694c-.633,1.219-1.036,1.294-2.574,3.761l.023,2.337h4.036v1.595Z" transform="translate(-419.288 -73.194)" fill="#f5f5f5"/>
  <path id="Path_612" data-name="Path 612" d="M573.959,191.022a1.557,1.557,0,0,1-1.067.436H558.322V196.6a24.345,24.345,0,0,1-.981,6.9h-2.048a24.638,24.638,0,0,0,1.046-7.884V188.3a1.807,1.807,0,0,1,.654-1.438,2.426,2.426,0,0,1,1.416-.436H572.7a1.691,1.691,0,0,1,1.285.479,1.539,1.539,0,0,1,.392,1.111v2.048A1.273,1.273,0,0,1,573.959,191.022Zm-1.591-2.658a.475.475,0,0,0-.479-.5H558.954a.6.6,0,0,0-.632.61v1.591h13.567a.459.459,0,0,0,.479-.414ZM558.91,203.551v-1.438h6.951v-1.091H559.1v-1.416h6.763V198.5h-5.142a.856.856,0,0,1-.828-.523.989.989,0,0,1,.327-1.2l2.549-2.974h-3.355v-1.438H574.38V193.8h-8.912l-2.9,3.279h7.5a15.488,15.488,0,0,1-1.286-2h2.594a21.277,21.277,0,0,0,2.374,3.356h-2.506c-.327-.327-.632-.676-.828-.915l.828.915-3.421.065v1.107h6.559v1.416h-6.559v1.091h6.559v1.438Z" transform="translate(-416.632 -139.49)" fill="#f5f5f5"/>
  <path id="Path_613" data-name="Path 613" d="M657.517,270.817c-.241.724-.811,1.617-1.206,2.494h1.118V286.48h-2.038V275.24a42.129,42.129,0,0,1-5.678,8.22h-2.871c3.595-3.222,7.321-8.609,8.615-12.643H647.2V269.14h18.621v1.677Zm5.941,12.643a35.505,35.505,0,0,1-5.2-9.163h2.1a26.371,26.371,0,0,0,5.919,9.163Z" transform="translate(-485.321 -201.551)" fill="#f5f5f5"/>
  <path id="Path_614" data-name="Path 614" d="M667.091,365.362v1.468h-5.767l-1.7-1.082v-5.31H655.26a7.038,7.038,0,0,1-3.192,6.393h-3.447c3.043-1.362,4.852-3.159,4.682-6.393h-4.852v-1.511h18.533v1.511h-5.4l-.011,4.932m3.256-10.9v-2.3a.486.486,0,0,0-.446-.532H650.834a.506.506,0,0,0-.468.489v2.383h-1.915v-2.788a1.546,1.546,0,0,1,.574-1.213,1.852,1.852,0,0,1,1.149-.362h6.554a12.584,12.584,0,0,0-.284-1.88h2.149c.17.617.187,1.233.348,1.88h6.309a1.437,1.437,0,0,1,1.106.511,1.849,1.849,0,0,1,.426,1.234v2.575Zm-13.011.678V353.72h11.724v1.426Z" transform="translate(-486.528 -260.92)" fill="#f5f5f5"/>
  <g id="Group_425" data-name="Group 425" transform="translate(162.135 46.81)">
    <path id="Path_615" data-name="Path 615" d="M676.531,203.434h-2.576a10.225,10.225,0,0,0,3.774-8.286v-9.223h1.777v8.745C679.505,197.924,678.906,201.019,676.531,203.434Zm8.9,0h-3.314a1.5,1.5,0,0,1-1.278-.639,1.883,1.883,0,0,1-.36-1.138V185.925h1.757v15.592a.522.522,0,0,0,.479.519h3.294Z" transform="translate(-667.799 -185.925)" fill="#f8cc7f"/>
    <path id="Path_616" data-name="Path 616" d="M653.295,195.867v5.93a1.778,1.778,0,0,1-.419,1.2,1.582,1.582,0,0,1-1.138.439h-1.657l-.639-1.4h1.6a.446.446,0,0,0,.479-.459v-4.951c-.479.179-1.6.559-2.216.759v-1.617a22.1,22.1,0,0,0,2.216-.719v-4.173H649.4v-1.438h2.117v-3.514h1.777v3.514h1.977v1.438h-1.977v3.414c.519-.18,1.537-.6,2.017-.819v1.517A21.93,21.93,0,0,1,653.295,195.867Z" transform="translate(-649.302 -185.925)" fill="#f8cc7f"/>
    <path id="Path_617" data-name="Path 617" d="M675.752,198.628h-1.8a18.217,18.217,0,0,0,1.4-4.712h1.717A17.842,17.842,0,0,1,675.752,198.628Z" transform="translate(-667.799 -191.921)" fill="#e95519"/>
    <path id="Path_618" data-name="Path 618" d="M676.412,221.078h-1.817a20.238,20.238,0,0,0,1.437-5.171h1.677A20.239,20.239,0,0,1,676.412,221.078Z" transform="translate(-668.279 -208.42)" fill="#f8cc7f"/>
    <path id="Path_619" data-name="Path 619" d="M710.531,197.913h-1.8a18.225,18.225,0,0,0,1.4-4.712h1.717A17.838,17.838,0,0,1,710.531,197.913Z" transform="translate(-693.894 -191.384)" fill="#f8cc7f"/>
    <path id="Path_620" data-name="Path 620" d="M710.531,221.172h-1.8a18.227,18.227,0,0,0,1.4-4.712h1.717A17.838,17.838,0,0,1,710.531,221.172Z" transform="translate(-693.894 -208.835)" fill="#e95519"/>
  </g>
  <g id="Group_428" data-name="Group 428" transform="translate(142.447 96.286)">
    <g id="Group_427" data-name="Group 427">
      <g id="Group_426" data-name="Group 426" transform="translate(0 3.729)">
        <rect id="Rectangle_269" data-name="Rectangle 269" width="4.412" height="2.923" transform="translate(0 3.095)" fill="#fdd835"/>
        <path id="Path_621" data-name="Path 621" d="M570.454,401.426l2.125-2.432,2.287,2.432" transform="translate(-570.454 -398.994)" fill="#ff9100"/>
      </g>
      <rect id="Rectangle_270" data-name="Rectangle 270" width="3.884" height="9.747" transform="translate(5.532)" fill="#fdd835"/>
    </g>
    <rect id="Rectangle_271" data-name="Rectangle 271" width="1.109" height="1.109" transform="translate(6.18 1.446)" fill="#165fd9" opacity="0.97"/>
    <rect id="Rectangle_272" data-name="Rectangle 272" width="1.109" height="1.109" transform="translate(6.18 2.925)" fill="#165fd9" opacity="0.97"/>
    <rect id="Rectangle_273" data-name="Rectangle 273" width="1.109" height="1.109" transform="translate(6.18 4.404)" fill="#165fd9" opacity="0.97"/>
    <rect id="Rectangle_274" data-name="Rectangle 274" width="1.109" height="1.109" transform="translate(6.18 5.882)" fill="#165fd9" opacity="0.97"/>
    <rect id="Rectangle_275" data-name="Rectangle 275" width="1.109" height="1.109" transform="translate(7.751 2.833)" fill="#165fd9" opacity="0.97"/>
    <rect id="Rectangle_276" data-name="Rectangle 276" width="1.109" height="1.109" transform="translate(7.751 4.311)" fill="#165fd9" opacity="0.97"/>
    <rect id="Rectangle_277" data-name="Rectangle 277" width="1.109" height="1.109" transform="translate(7.751 5.79)" fill="#165fd9" opacity="0.97"/>
  </g>
  <g id="Group_429" data-name="Group 429" transform="translate(157.69 147.28)">
    <path id="Path_622" data-name="Path 622" d="M635.745,588.278l-2.173,2.173-2.072-2.072" transform="translate(-631.5 -588.278)" fill="none" stroke="#fff" stroke-miterlimit="10" stroke-width="1"/>
    <path id="Path_623" data-name="Path 623" d="M635.745,599.261l-2.173,2.173-2.072-2.072" transform="translate(-631.5 -596.518)" fill="none" stroke="#fff" stroke-miterlimit="10" stroke-width="1" opacity="0.47"/>
  </g>
  <text id="前往活動區" transform="translate(157.163 159.451)" fill="#efebe9" font-size="4" font-family="PingFangTC-Regular, PingFang TC" letter-spacing="0.06em"><tspan x="-10.48" y="0">前往活動區</tspan></text>
  <text id="全站_20_多萬筆物件_嚴選超過_2_萬降價屋_等你來鑑賞_" data-name="全站 20 多萬筆物件‧嚴選超過 2 萬降價屋 等你來鑑賞!" transform="translate(153.13 118.914)" fill="#fff" font-size="4" font-family="PingFangTC-Regular, PingFang TC" letter-spacing="0.06em"><tspan x="-50.797" y="0">全站</tspan><tspan y="0" xml:space="preserve" font-family="Helvetica"> 20 </tspan><tspan y="0">多萬筆物件</tspan><tspan y="0" font-family="Helvetica">‧</tspan><tspan y="0">嚴選超過</tspan><tspan y="0" xml:space="preserve" font-family="Helvetica"> 2 </tspan><tspan y="0">萬降價屋</tspan><tspan y="0" font-family="Helvetica"> </tspan><tspan y="0">等你來鑑賞</tspan><tspan y="0" font-family="Helvetica">!</tspan></text>
  <g id="Group_430" data-name="Group 430" transform="translate(149.188 87.572)">
    <circle id="Ellipse_89" data-name="Ellipse 89" cx="2.414" cy="2.414" r="2.414" transform="translate(0 4.806) rotate(-84.507)" fill="#fff"/>
    <path id="Path_624" data-name="Path 624" d="M604.642,357.3a.947.947,0,1,0,.947-.947A.947.947,0,0,0,604.642,357.3Z" transform="translate(-602.847 -354.558)" fill="#165fd9" opacity="0.97"/>
    <path id="Path_625" data-name="Path 625" d="M604.5,366l.225,3.174L606.247,366Z" transform="translate(-602.738 -361.796)" fill="#fff"/>
  </g>
  <g id="Group_431" data-name="Group 431" transform="translate(134.035 79.777)" opacity="0.8">
    <path id="Path_626" data-name="Path 626" d="M545.813,319.584h-.79a1.373,1.373,0,0,0-.975-.419,1.351,1.351,0,0,0-.745.231,1.492,1.492,0,0,0-2.881-.5.84.84,0,0,0-1.372.65.2.2,0,0,0,0,.037h-.983a1.25,1.25,0,1,0,0,2.5h7.742a1.25,1.25,0,1,0,0-2.5Z" transform="translate(-536.769 -317.948)" fill="none" stroke="#fff" stroke-miterlimit="10" stroke-width="1"/>
    <path id="Path_627" data-name="Path 627" d="M562.831,331.645l.6-.933" transform="translate(-556.323 -327.525)" fill="none" stroke="#fff" stroke-linejoin="round" stroke-width="0.3"/>
    <path id="Path_628" data-name="Path 628" d="M565.371,332.479l.435-.673" transform="translate(-558.229 -328.346)" fill="none" stroke="#fff" stroke-miterlimit="10" stroke-width="0.3"/>
    <path id="Path_629" data-name="Path 629" d="M567.75,333.207c.1-.158.165-.245.266-.4" transform="translate(-560.014 -329.094)" fill="none" stroke="#fff" stroke-miterlimit="10" stroke-width="0.3"/>
  </g>
  <g id="Group_432" data-name="Group 432" transform="translate(95.58 96.008)" opacity="0.8">
    <path id="Path_630" data-name="Path 630" d="M391.813,384.584h-.79a1.373,1.373,0,0,0-.975-.419,1.351,1.351,0,0,0-.745.231,1.492,1.492,0,0,0-2.881-.5.84.84,0,0,0-1.372.65.211.211,0,0,0,0,.037h-.983a1.25,1.25,0,1,0,0,2.5h7.742a1.25,1.25,0,1,0,0-2.5Z" transform="translate(-382.769 -382.948)" fill="none" stroke="#fff" stroke-miterlimit="10" stroke-width="1"/>
    <path id="Path_631" data-name="Path 631" d="M408.831,396.645l.6-.933" transform="translate(-402.323 -392.525)" fill="none" stroke="#fff" stroke-linejoin="round" stroke-width="0.3"/>
    <path id="Path_632" data-name="Path 632" d="M411.371,397.479l.435-.673" transform="translate(-404.229 -393.346)" fill="none" stroke="#fff" stroke-miterlimit="10" stroke-width="0.3"/>
    <path id="Path_633" data-name="Path 633" d="M413.75,398.207c.1-.158.165-.245.266-.4" transform="translate(-406.014 -394.094)" fill="none" stroke="#fff" stroke-miterlimit="10" stroke-width="0.3"/>
  </g>
  <path id="Path_634" data-name="Path 634" d="M576.437,334c-.25,0-.25.25,0,.25S576.687,334,576.437,334Z" transform="translate(-432.356 -250.215)" fill="#fff"/>
  <g id="Group_433" data-name="Group 433" transform="translate(118.195 90.111)">
    <path id="Path_635" data-name="Path 635" d="M492.194,368h-11.7a1.839,1.839,0,0,0-1.631,1.5H475a1.624,1.624,0,1,0,0,3.246h11.7a1.609,1.609,0,0,0,1.631-1.249h3.862a1.75,1.75,0,0,0,0-3.5Z" transform="translate(-473.333 -365.836)" fill="#fff" opacity="0.9"/>
    <path id="Path_636" data-name="Path 636" d="M522.236,362.829H512.081a1.753,1.753,0,0,1-1.748-1.748h0a1.753,1.753,0,0,1,1.748-1.748h10.155a1.753,1.753,0,0,1,1.748,1.748h0A1.753,1.753,0,0,1,522.236,362.829Z" transform="translate(-501.094 -359.333)" fill="#fff"/>
  </g>
  <g id="Group_435" data-name="Group 435" transform="translate(89.42 79.457)">
    <g id="Group_434" data-name="Group 434" transform="translate(0 2.331)">
      <path id="Path_637" data-name="Path 637" d="M383.254,326H367.9a2.412,2.412,0,0,0-2.352,2.413,3.653,3.653,0,0,0,.061.584h-5.876a1.623,1.623,0,1,0,0,3.246h15.158a1.708,1.708,0,0,0,1.308-2.709s0-.038.005-.038h7.049a1.748,1.748,0,1,0,0-3.5Z" transform="translate(-358.1 -326)" fill="#fff" opacity="0.8"/>
      <path id="Path_638" data-name="Path 638" d="M406.515,335.568l-2.83,3.5c-.3.371.226.9.53.53l2.83-3.5C407.345,335.726,406.818,335.193,406.515,335.568Z" transform="translate(-392.234 -333.083)" fill="#165fd9" opacity="0.97"/>
      <path id="Path_639" data-name="Path 639" d="M414.119,342.242l-1.832,2c-.325.355.2.886.53.53l1.832-2C414.974,342.417,414.446,341.886,414.119,342.242Z" transform="translate(-398.68 -338.098)" fill="#165fd9" opacity="0.97"/>
    </g>
    <path id="Path_640" data-name="Path 640" d="M412.236,320.163H402.081a1.753,1.753,0,0,1-1.748-1.748h0a1.753,1.753,0,0,1,1.748-1.748h10.155a1.753,1.753,0,0,1,1.748,1.748h0A1.753,1.753,0,0,1,412.236,320.163Z" transform="translate(-389.787 -316.667)" fill="#fff"/>
  </g>
  <g id="Group_436" data-name="Group 436" transform="translate(233.254 84.761)" opacity="0.8">
    <path id="Path_641" data-name="Path 641" d="M942.132,339.553h-.7c-.218-.5-.524-.483-.865-.483a1.164,1.164,0,0,0-.661.15,1.337,1.337,0,0,0-1.318-1.313,1.3,1.3,0,0,0-1.237.828.748.748,0,0,0-.468-.176.846.846,0,0,0-.749.854c0,.012,0,.141,0,.141h-.872a1.009,1.009,0,1,0,0,2h6.867a1.009,1.009,0,1,0,0-2Z" transform="translate(-934.111 -337.906)" fill="none" stroke="#fff" stroke-miterlimit="10" stroke-width="1"/>
    <path id="Path_642" data-name="Path 642" d="M957.227,349.943l.535-.827" transform="translate(-951.455 -346.317)" fill="none" stroke="#fff" stroke-linejoin="round" stroke-width="0.3"/>
    <path id="Path_643" data-name="Path 643" d="M959.479,350.683l.386-.6" transform="translate(-953.144 -347.045)" fill="none" stroke="#fff" stroke-miterlimit="10" stroke-width="0.3"/>
    <path id="Path_644" data-name="Path 644" d="M961.589,351.328c.09-.14.146-.217.236-.357" transform="translate(-954.728 -347.709)" fill="none" stroke="#fff" stroke-miterlimit="10" stroke-width="0.3"/>
  </g>
  <g id="Group_437" data-name="Group 437" transform="translate(195.213 96.757)" opacity="0.8">
    <path id="Path_645" data-name="Path 645" d="M790.813,387.584h-.79a1.373,1.373,0,0,0-.975-.418,1.351,1.351,0,0,0-.745.231,1.492,1.492,0,0,0-2.881-.5.84.84,0,0,0-1.372.65.211.211,0,0,0,0,.037h-.983a1.25,1.25,0,1,0,0,2.5h7.742a1.25,1.25,0,1,0,0-2.5Z" transform="translate(-781.769 -385.948)" fill="none" stroke="#fff" stroke-miterlimit="10" stroke-width="1"/>
    <path id="Path_646" data-name="Path 646" d="M807.831,399.645l.6-.933" transform="translate(-801.323 -395.525)" fill="none" stroke="#fff" stroke-linejoin="round" stroke-width="0.3"/>
    <path id="Path_647" data-name="Path 647" d="M810.371,400.479l.435-.673" transform="translate(-803.229 -396.346)" fill="none" stroke="#fff" stroke-miterlimit="10" stroke-width="0.3"/>
    <path id="Path_648" data-name="Path 648" d="M812.75,401.207c.1-.158.165-.245.266-.4" transform="translate(-805.014 -397.094)" fill="none" stroke="#fff" stroke-miterlimit="10" stroke-width="0.3"/>
  </g>
  <g id="Group_438" data-name="Group 438" transform="translate(195.296 84.534)">
    <path id="Path_649" data-name="Path 649" d="M807.254,337H791.9a2.412,2.412,0,0,0-2.352,2.413,3.652,3.652,0,0,0,.061.584h-5.876a1.623,1.623,0,1,0,0,3.246h15.158a1.708,1.708,0,0,0,1.308-2.709s0-.038.005-.038h7.049a1.748,1.748,0,1,0,0-3.5Z" transform="translate(-782.1 -337)" fill="#fff" opacity="0.8"/>
    <path id="Path_650" data-name="Path 650" d="M830.515,346.568l-2.83,3.5c-.3.371.226.9.53.53l2.83-3.5C831.345,346.726,830.818,346.193,830.515,346.568Z" transform="translate(-816.234 -344.083)" fill="#165fd9" opacity="0.97"/>
    <path id="Path_651" data-name="Path 651" d="M838.119,353.242l-1.832,2c-.325.355.2.886.53.53l1.832-2C838.974,353.417,838.446,352.886,838.119,353.242Z" transform="translate(-822.68 -349.098)" fill="#165fd9" opacity="0.97"/>
  </g>
  <g id="Group_439" data-name="Group 439" transform="translate(214.831 95.854)">
    <path id="Path_652" data-name="Path 652" d="M879.194,391h-11.7a1.839,1.839,0,0,0-1.631,1.5H862a1.624,1.624,0,1,0,0,3.246h11.7a1.609,1.609,0,0,0,1.631-1.249h3.862a1.75,1.75,0,0,0,0-3.5Z" transform="translate(-860.333 -388.836)" fill="#fff" opacity="0.8"/>
    <path id="Path_653" data-name="Path 653" d="M909.236,385.829H899.081a1.753,1.753,0,0,1-1.748-1.748h0a1.753,1.753,0,0,1,1.748-1.748h10.155a1.753,1.753,0,0,1,1.748,1.748h0A1.753,1.753,0,0,1,909.236,385.829Z" transform="translate(-888.094 -382.333)" fill="#fff"/>
  </g>
  <path id="Path_654" data-name="Path 654" d="M836.236,331.163H826.081a1.753,1.753,0,0,1-1.748-1.748h0a1.753,1.753,0,0,1,1.748-1.748h10.155a1.753,1.753,0,0,1,1.748,1.748h0A1.753,1.753,0,0,1,836.236,331.163Z" transform="translate(-618.491 -245.463)" fill="#fff"/>
</svg>
